# Blender 4.3.1
# www.blender.org
mtllib block.mtl
o Cube
v 0.050000 0.010000 -0.025000
v 0.050000 -0.010000 -0.025000
v 0.050000 0.010000 0.025000
v 0.050000 -0.010000 0.025000
v -0.050000 0.010000 -0.025000
v -0.050000 -0.010000 -0.025000
v -0.050000 0.010000 0.025000
v -0.050000 -0.010000 0.025000
vn -0.0000 1.0000 -0.0000
vn -0.0000 -0.0000 1.0000
vn -1.0000 -0.0000 -0.0000
vn -0.0000 -1.0000 -0.0000
vn 1.0000 -0.0000 -0.0000
vn -0.0000 -0.0000 -1.0000
vt 0.472406 0.600302
vt 0.475735 0.637022
vt 0.458743 0.622049
vt 0.656752 0.416716
vt 0.656752 0.813464
vt 0.497019 0.612798
vt 0.295696 0.450316
vt 0.842896 0.224776
vt 0.679539 0.061419
vt 0.842896 0.061419
vt 0.295696 0.790981
vt 0.679539 0.224776
s 0
usemtl Material
f 5/1/1 3/2/1 1/3/1
f 3/2/2 8/4/2 4/5/2
f 7/6/3 6/7/3 8/4/3
f 2/8/4 8/9/4 6/10/4
f 1/3/5 4/5/5 2/11/5
f 5/1/6 2/11/6 6/7/6
f 5/1/1 7/6/1 3/2/1
f 3/2/2 7/6/2 8/4/2
f 7/6/3 5/1/3 6/7/3
f 2/8/4 4/12/4 8/9/4
f 1/3/5 3/2/5 4/5/5
f 5/1/6 1/3/6 2/11/6
