# Blender 4.3.1
# www.blender.org
mtllib crescent.mtl
o Crescent
v 0.040289 -0.010000 -0.000079
v 0.041024 0.010000 -0.001366
v 0.080149 -0.010000 -0.000040
v 0.080241 0.010000 -0.000032
v 0.076093 -0.010000 -0.026570
v 0.077230 0.010000 -0.021602
v 0.035162 -0.010000 -0.019949
v 0.061479 0.010000 -0.053052
v 0.028487 0.010003 -0.029040
v 0.053052 -0.010000 -0.061479
v 0.021121 -0.010001 -0.034235
v 0.026570 0.010000 -0.076093
v 0.009272 0.010000 -0.039143
v 0.011642 -0.010000 -0.080034
v 0.003903 -0.010001 -0.040144
v -0.011642 0.010000 -0.080034
v -0.010757 0.010000 -0.038969
v -0.026570 -0.010000 -0.076093
v -0.019480 -0.010000 -0.035775
v -0.044020 0.010000 -0.067244
v -0.032943 0.010000 -0.024117
v -0.050873 -0.010000 -0.061993
v -0.069984 0.010000 -0.040839
v -0.069676 -0.010000 -0.040599
v -0.032766 -0.010000 -0.022943
vn 0.9885 -0.0045 -0.1511
vn -0.9770 0.0516 0.2071
vn -0.9770 0.0500 0.2071
vn -0.9768 0.0549 0.2071
vn 0.8287 -0.1187 -0.5470
vn -0.7109 0.0803 0.6987
vn -0.0001 1.0000 -0.0001
vn -0.3655 0.0326 0.9303
vn -0.3621 0.0208 0.9319
vn -0.3622 0.0209 0.9319
vn 0.4057 -0.1244 -0.9055
vn -0.0000 1.0000 -0.0000
vn 0.1401 0.0766 0.9872
vn 0.1441 0.0589 0.9878
vn 0.1444 0.0581 0.9878
vn -0.1019 -0.1186 -0.9877
vn -0.5011 -0.0551 -0.8636
vn 0.6619 0.0483 0.7481
vn 0.6662 0.0280 0.7453
vn 0.6684 0.0232 0.7434
vn -0.7510 -0.0195 -0.6600
vn -0.5079 0.0033 0.8614
vn -0.5079 0.0042 0.8614
vn -0.5079 0.0037 0.8614
vn -0.4882 0.0496 0.8713
vn -0.4883 0.0474 0.8714
vn -0.4883 0.0477 0.8714
vn -0.0010 -0.0004 1.0000
vn -0.0339 0.0654 0.9973
vn 0.9902 -0.0220 -0.1382
vn 0.8925 0.0603 -0.4470
vn -0.8877 -0.1046 0.4484
vn -0.8859 -0.1155 0.4492
vn -0.8884 -0.1013 0.4477
vn 0.0001 1.0000 -0.0000
vn 0.5470 0.1187 -0.8287
vn -0.0000 1.0000 -0.0001
vn -0.5024 -0.0474 0.8633
vn -0.5015 -0.0436 0.8641
vn -0.5032 -0.0529 0.8626
vn 0.1019 0.1186 -0.9877
vn 0.0087 -0.0523 0.9986
vn -0.3659 0.0906 -0.9262
vn 0.5161 -0.1127 0.8491
vn 0.5164 -0.1068 0.8497
vn 0.5162 -0.1092 0.8495
vn -0.7117 0.0601 -0.6999
vn -0.0000 -1.0000 -0.0000
vn -0.0001 -1.0000 -0.0000
vt 0.350733 0.655600
vt 0.345782 0.693635
vt 0.416148 0.670670
vt 0.271091 0.576250
vt 0.278234 0.632694
vt 0.319040 0.612431
vt 0.413941 0.580649
vt 0.467298 0.571192
vt 0.275429 0.523857
vt 0.328163 0.549885
vt 0.330836 0.490055
vt 0.427788 0.498765
vt 0.275572 0.477298
vt 0.471296 0.462639
vt 0.416521 0.424130
vt 0.271091 0.414069
vt 0.326977 0.435736
vt 0.444426 0.376154
vt 0.385832 0.368444
vt 0.399520 0.321754
vt 0.317751 0.380313
vt 0.343704 0.338737
vt 0.277611 0.364385
vt 0.336219 0.306365
vt 0.376900 0.636929
vt 0.665213 0.093993
vt 0.596847 0.029968
vt 0.581316 0.070230
vt 0.608610 0.161325
vt 0.548520 0.096665
vt 0.511118 0.104832
vt 0.517606 0.190038
vt 0.463332 0.090031
vt 0.391393 0.137182
vt 0.438692 0.060003
vt 0.680122 0.039557
vt 0.438739 0.172534
vt 0.357305 0.087929
s 0
usemtl Material_0.004
f 4/1/1 3/2/1 5/3/1
f 7/4/2 1/5/3 2/6/4
f 8/7/5 5/3/5 10/8/5
f 11/9/6 7/4/6 9/10/6
f 13/11/7 9/10/7 12/12/7
f 15/13/8 11/9/9 13/11/10
f 12/12/11 10/8/11 14/14/11
f 13/11/12 12/12/12 16/15/12
f 19/16/13 15/13/14 17/17/15
f 16/15/16 14/14/16 18/18/16
f 20/19/17 18/18/17 22/20/17
f 21/21/12 20/19/12 23/22/12
f 25/23/18 19/16/19 21/21/20
f 23/22/21 22/20/21 24/24/21
f 23/22/22 24/24/23 25/23/24
f 23/22/25 25/23/26 21/21/27
f 4/1/28 1/5/28 3/2/28
f 4/1/29 2/6/29 1/5/29
f 4/1/30 5/3/30 6/25/30
f 2/6/12 4/1/12 6/25/12
f 6/25/31 5/3/31 8/7/31
f 2/6/12 6/25/12 8/7/12
f 7/4/32 2/6/33 9/10/34
f 2/6/35 8/7/35 9/10/35
f 8/7/36 10/8/36 12/12/36
f 9/10/37 8/7/37 12/12/37
f 11/9/38 9/10/39 13/11/40
f 12/12/41 14/14/41 16/15/41
f 15/13/42 13/11/42 17/17/42
f 13/11/12 16/15/12 17/17/12
f 16/15/43 18/18/43 20/19/43
f 17/17/12 16/15/12 20/19/12
f 19/16/44 17/17/45 21/21/46
f 17/17/12 20/19/12 21/21/12
f 20/19/47 22/20/47 23/22/47
f 5/26/48 1/27/48 7/28/48
f 10/29/48 7/28/48 11/30/48
f 10/29/48 11/30/48 15/31/48
f 14/32/49 15/31/49 19/33/49
f 22/34/48 19/33/48 25/35/48
f 3/36/48 1/27/48 5/26/48
f 5/26/48 7/28/48 10/29/48
f 10/29/48 15/31/48 14/32/48
f 14/32/48 19/33/48 18/37/48
f 18/37/48 19/33/48 22/34/48
f 22/34/48 25/35/48 24/38/48
