# Blender 4.3.1
# www.blender.org
mtllib hexagon.mtl
o Hexagon
v 0.035000 -0.010000 0.000000
v 0.035000 0.010000 0.000000
v 0.017500 -0.010000 -0.030250
v 0.017500 0.010000 -0.030250
v -0.017500 -0.010000 -0.030250
v -0.017500 0.010000 -0.030250
v -0.035000 -0.010000 0.000000
v -0.035000 0.010000 0.000000
v -0.017500 -0.010000 0.030250
v -0.017500 0.010000 0.030250
v 0.017500 -0.010000 0.030250
v 0.017500 0.010000 0.030250
vn -0.0000 1.0000 -0.0000
vn 0.8656 -0.0000 -0.5008
vn -0.0000 -0.0000 -1.0000
vn -0.8656 -0.0000 -0.5008
vn -0.8656 -0.0000 0.5008
vn -0.0000 -0.0000 1.0000
vn 0.8656 -0.0000 0.5008
vn -0.0000 -1.0000 -0.0000
vt 0.606928 0.415179
vt 0.493539 0.416644
vt 0.548965 0.317713
vt 0.632766 0.426741
vt 0.609328 0.347756
vt 0.632766 0.330274
vt 0.554150 0.481472
vt 0.470607 0.433239
vt 0.550729 0.452433
vt 0.462516 0.337790
vt 0.546059 0.289556
vt 0.489375 0.349346
vt 0.544942 0.202727
vt 0.480402 0.165464
vt 0.544943 0.053677
vt 0.609484 0.090939
vt 0.609484 0.165465
vt 0.480402 0.090939
s 0
usemtl Material_0.002
f 4/1/1 8/2/1 12/3/1
f 3/4/2 2/5/2 1/6/2
f 5/7/3 4/1/3 3/4/3
f 7/8/4 6/9/4 5/7/4
f 9/10/5 8/2/5 7/8/5
f 11/11/6 10/12/6 9/10/6
f 1/6/7 12/3/7 11/11/7
f 12/3/1 2/5/1 4/1/1
f 4/1/1 6/9/1 8/2/1
f 8/2/1 10/12/1 12/3/1
f 3/4/2 4/1/2 2/5/2
f 5/7/3 6/9/3 4/1/3
f 7/8/4 8/2/4 6/9/4
f 9/10/5 10/12/5 8/2/5
f 11/11/6 12/3/6 10/12/6
f 1/6/7 2/5/7 12/3/7
f 11/13/8 9/14/8 5/15/8
f 11/13/8 5/15/8 3/16/8
f 1/17/8 11/13/8 3/16/8
f 9/14/8 7/18/8 5/15/8
