# Blender 4.3.1
# www.blender.org
mtllib star.mtl
o Star1
v -0.005123 -0.009909 -0.023905
v -0.005116 0.009946 -0.023898
v -0.033597 0.009967 -0.039784
v -0.033630 -0.009873 -0.039805
v 0.000400 -0.009955 0.011997
v 0.021984 -0.009947 -0.042248
v -0.048578 -0.009875 0.015816
v -0.016250 -0.009908 0.017505
v -0.025190 -0.009867 -0.007389
v 0.009337 -0.009994 0.016378
v 0.041409 -0.009996 0.011861
v 0.022008 0.009900 -0.042245
v 0.016234 0.009853 -0.009214
v 0.041451 0.009851 0.011874
v 0.009352 0.009868 0.016390
v -0.025168 0.009990 -0.007385
v 0.016214 -0.009969 -0.009211
v -0.002176 0.009892 0.047762
v -0.002197 -0.009950 0.047747
v -0.016241 0.009931 0.017503
v -0.048541 0.009965 0.015815
vn 0.4871 0.0002 -0.8733
vn 0.6415 -0.0008 -0.7671
vn 0.9386 -0.0013 0.3451
vn 0.0014 1.0000 -0.0011
vn 0.0009 1.0000 0.0020
vn 0.0005 1.0000 -0.0005
vn 0.0033 1.0000 0.0003
vn 0.0034 1.0000 0.0014
vn 0.0030 1.0000 0.0019
vn 0.0025 1.0000 0.0002
vn 0.0025 1.0000 0.0015
vn -0.9678 0.0010 0.2518
vn -0.9677 0.0013 0.2520
vn 0.4871 0.0001 -0.8733
vn -0.5604 0.0005 -0.8282
vn -0.5603 0.0008 -0.8283
vn 0.9851 -0.0012 0.1722
vn 0.9851 -0.0009 0.1721
vn 0.6415 -0.0009 -0.7671
vn 0.1393 -0.0007 0.9902
vn 0.1395 -0.0010 0.9902
vn 0.9386 -0.0009 0.3449
vn -0.9069 0.0007 0.4214
vn -0.9068 0.0004 0.4215
vn -0.0522 0.0002 0.9986
vn -0.0522 0.0001 0.9986
vn -0.7045 0.0013 -0.7097
vn -0.7043 0.0009 -0.7099
vn -0.0010 -1.0000 -0.0067
vn -0.0034 -1.0000 -0.0018
vn -0.0033 -1.0000 0.0002
vn -0.0013 -1.0000 0.0047
vn -0.0010 -1.0000 -0.0001
vn -0.0016 -1.0000 0.0006
vn -0.0028 -1.0000 -0.0009
vn -0.0022 -1.0000 -0.0010
vn -0.0021 -1.0000 -0.0010
vn -0.0018 -1.0000 -0.0022
vt 0.586273 0.451866
vt 0.530946 0.451784
vt 0.530960 0.360445
vt 0.573519 0.578306
vt 0.521474 0.669685
vt 0.521495 0.578346
vt 0.639875 0.783543
vt 0.696454 0.691972
vt 0.696454 0.783312
vt 0.741862 0.350884
vt 0.746542 0.294234
vt 0.784521 0.336560
vt 0.839866 0.323523
vt 0.811339 0.372692
vt 0.785256 0.409376
vt 0.748123 0.452503
vt 0.742301 0.395896
vt 0.689841 0.373936
vt 0.840859 0.421341
vt 0.741182 0.502710
vt 0.741183 0.594050
vt 0.691980 0.593882
vt 0.691982 0.502542
vt 0.586320 0.360527
vt 0.639875 0.843573
vt 0.640082 0.786695
vt 0.731421 0.786702
vt 0.731214 0.843600
vt 0.639875 0.688589
vt 0.639879 0.597250
vt 0.696555 0.597484
vt 0.696560 0.688823
vt 0.573481 0.669645
vt 0.530966 0.555978
vt 0.530945 0.464639
vt 0.583444 0.556040
vt 0.583403 0.464701
vt 0.639882 0.692204
vt 0.359699 0.450404
vt 0.359504 0.407304
vt 0.450843 0.407301
vt 0.451039 0.450407
vt 0.530959 0.347692
vt 0.530945 0.256353
vt 0.586529 0.256250
vt 0.586570 0.347589
vt 0.789795 0.502528
vt 0.789792 0.593867
vt 0.356286 0.155675
vt 0.340523 0.140935
vt 0.412970 0.150981
vt 0.311280 0.155223
vt 0.333259 0.207682
vt 0.254703 0.149393
vt 0.370621 0.113011
vt 0.297803 0.112282
vt 0.285859 0.056669
vt 0.334477 0.086190
vt 0.383676 0.057648
s 0
usemtl Red.002
f 3/1/1 2/2/1 1/3/1
f 14/4/2 17/5/2 13/6/2
f 10/7/3 18/8/3 19/9/3
f 2/10/4 3/11/4 16/12/4
f 16/12/5 21/13/5 20/14/5
f 15/15/6 14/16/6 13/17/6
f 13/17/7 16/12/7 15/15/7
f 16/12/8 13/17/8 2/10/8
f 13/17/9 12/18/9 2/10/9
f 20/14/10 18/19/10 15/15/10
f 15/15/11 16/12/11 20/14/11
f 9/20/12 16/21/12 3/22/12
f 9/20/13 3/22/13 4/23/13
f 1/3/14 4/24/14 3/1/14
f 6/25/15 1/26/15 2/27/15
f 2/27/16 12/28/16 6/25/16
f 6/29/17 12/30/17 13/31/17
f 6/29/18 13/31/18 17/32/18
f 17/5/19 14/4/19 11/33/19
f 15/34/20 10/35/20 14/36/20
f 10/35/21 11/37/21 14/36/21
f 10/7/22 15/38/22 18/8/22
f 8/39/23 19/40/23 18/41/23
f 18/41/24 20/42/24 8/39/24
f 8/43/25 20/44/25 21/45/25
f 8/43/26 21/45/26 7/46/26
f 7/47/27 21/48/27 16/21/27
f 7/47/28 16/21/28 9/20/28
f 10/49/29 5/50/29 11/51/29
f 8/52/30 5/50/30 10/49/30
f 10/49/31 19/53/31 8/52/31
f 7/54/32 5/50/32 8/52/32
f 17/55/33 11/51/33 5/50/33
f 9/56/34 4/57/34 1/58/34
f 1/58/35 5/50/35 9/56/35
f 1/58/36 17/55/36 5/50/36
f 1/58/37 6/59/37 17/55/37
f 5/50/38 7/54/38 9/56/38
