mtllib material.mtl
usemtl material_0
v 0.00000000 -0.01000000 -0.03500000
v 0.00000000 -0.01000000 -0.03500000
v 0.00000000 -0.01000000 -0.03500000
v 0.00000000 0.01000000 -0.03500000
v 0.00000000 0.01000000 -0.03500000
v 0.00000000 0.01000000 -0.03500000
v 0.00682800 -0.01000000 -0.03432700
v 0.00682800 -0.01000000 -0.03432700
v 0.00682800 -0.01000000 -0.03432700
v 0.00682800 0.01000000 -0.03432700
v 0.00682800 0.01000000 -0.03432700
v 0.00682800 0.01000000 -0.03432700
v 0.01339400 -0.01000000 -0.03233600
v 0.01339400 -0.01000000 -0.03233600
v 0.01339400 -0.01000000 -0.03233600
v 0.01339400 0.01000000 -0.03233600
v 0.01339400 0.01000000 -0.03233600
v 0.01339400 0.01000000 -0.03233600
v 0.01944500 -0.01000000 -0.02910100
v 0.01944500 -0.01000000 -0.02910100
v 0.01944500 -0.01000000 -0.02910100
v 0.01944500 0.01000000 -0.02910100
v 0.01944500 0.01000000 -0.02910100
v 0.01944500 0.01000000 -0.02910100
v 0.02474900 -0.01000000 -0.02474900
v 0.02474900 -0.01000000 -0.02474900
v 0.02474900 -0.01000000 -0.02474900
v 0.02474900 0.01000000 -0.02474900
v 0.02474900 0.01000000 -0.02474900
v 0.02474900 0.01000000 -0.02474900
v 0.02910100 -0.01000000 -0.01944500
v 0.02910100 -0.01000000 -0.01944500
v 0.02910100 -0.01000000 -0.01944500
v 0.02910100 0.01000000 -0.01944500
v 0.02910100 0.01000000 -0.01944500
v 0.02910100 0.01000000 -0.01944500
v 0.03233600 -0.01000000 -0.01339400
v 0.03233600 -0.01000000 -0.01339400
v 0.03233600 -0.01000000 -0.01339400
v 0.03233600 0.01000000 -0.01339400
v 0.03233600 0.01000000 -0.01339400
v 0.03233600 0.01000000 -0.01339400
v 0.03432700 -0.01000000 -0.00682800
v 0.03432700 -0.01000000 -0.00682800
v 0.03432700 -0.01000000 -0.00682800
v 0.03432700 0.01000000 -0.00682800
v 0.03432700 0.01000000 -0.00682800
v 0.03432700 0.01000000 -0.00682800
v 0.03500000 -0.01000000 0.00000000
v 0.03500000 -0.01000000 0.00000000
v 0.03500000 -0.01000000 0.00000000
v 0.03500000 0.01000000 0.00000000
v 0.03500000 0.01000000 0.00000000
v 0.03500000 0.01000000 0.00000000
v 0.03432700 -0.01000000 0.00682800
v 0.03432700 -0.01000000 0.00682800
v 0.03432700 -0.01000000 0.00682800
v 0.03432700 0.01000000 0.00682800
v 0.03432700 0.01000000 0.00682800
v 0.03432700 0.01000000 0.00682800
v 0.03233600 -0.01000000 0.01339400
v 0.03233600 -0.01000000 0.01339400
v 0.03233600 -0.01000000 0.01339400
v 0.03233600 0.01000000 0.01339400
v 0.03233600 0.01000000 0.01339400
v 0.03233600 0.01000000 0.01339400
v 0.02910100 -0.01000000 0.01944500
v 0.02910100 -0.01000000 0.01944500
v 0.02910100 -0.01000000 0.01944500
v 0.02910100 0.01000000 0.01944500
v 0.02910100 0.01000000 0.01944500
v 0.02910100 0.01000000 0.01944500
v 0.02474900 -0.01000000 0.02474900
v 0.02474900 -0.01000000 0.02474900
v 0.02474900 -0.01000000 0.02474900
v 0.02474900 0.01000000 0.02474900
v 0.02474900 0.01000000 0.02474900
v 0.02474900 0.01000000 0.02474900
v 0.01944500 -0.01000000 0.02910100
v 0.01944500 -0.01000000 0.02910100
v 0.01944500 -0.01000000 0.02910100
v 0.01944500 0.01000000 0.02910100
v 0.01944500 0.01000000 0.02910100
v 0.01944500 0.01000000 0.02910100
v 0.01339400 -0.01000000 0.03233600
v 0.01339400 -0.01000000 0.03233600
v 0.01339400 -0.01000000 0.03233600
v 0.01339400 0.01000000 0.03233600
v 0.01339400 0.01000000 0.03233600
v 0.01339400 0.01000000 0.03233600
v 0.00682800 -0.01000000 0.03432700
v 0.00682800 -0.01000000 0.03432700
v 0.00682800 -0.01000000 0.03432700
v 0.00682800 0.01000000 0.03432700
v 0.00682800 0.01000000 0.03432700
v 0.00682800 0.01000000 0.03432700
v 0.00000000 -0.01000000 0.03500000
v 0.00000000 -0.01000000 0.03500000
v 0.00000000 -0.01000000 0.03500000
v 0.00000000 0.01000000 0.03500000
v 0.00000000 0.01000000 0.03500000
v 0.00000000 0.01000000 0.03500000
v -0.00682800 -0.01000000 0.03432700
v -0.00682800 -0.01000000 0.03432700
v -0.00682800 -0.01000000 0.03432700
v -0.00682800 0.01000000 0.03432700
v -0.00682800 0.01000000 0.03432700
v -0.00682800 0.01000000 0.03432700
v -0.01339400 -0.01000000 0.03233600
v -0.01339400 -0.01000000 0.03233600
v -0.01339400 -0.01000000 0.03233600
v -0.01339400 0.01000000 0.03233600
v -0.01339400 0.01000000 0.03233600
v -0.01339400 0.01000000 0.03233600
v -0.01944500 -0.01000000 0.02910100
v -0.01944500 -0.01000000 0.02910100
v -0.01944500 -0.01000000 0.02910100
v -0.01944500 0.01000000 0.02910100
v -0.01944500 0.01000000 0.02910100
v -0.01944500 0.01000000 0.02910100
v -0.02474900 -0.01000000 0.02474900
v -0.02474900 -0.01000000 0.02474900
v -0.02474900 -0.01000000 0.02474900
v -0.02474900 0.01000000 0.02474900
v -0.02474900 0.01000000 0.02474900
v -0.02474900 0.01000000 0.02474900
v -0.02910100 -0.01000000 0.01944500
v -0.02910100 -0.01000000 0.01944500
v -0.02910100 -0.01000000 0.01944500
v -0.02910100 0.01000000 0.01944500
v -0.02910100 0.01000000 0.01944500
v -0.02910100 0.01000000 0.01944500
v -0.03233600 -0.01000000 0.01339400
v -0.03233600 -0.01000000 0.01339400
v -0.03233600 -0.01000000 0.01339400
v -0.03233600 0.01000000 0.01339400
v -0.03233600 0.01000000 0.01339400
v -0.03233600 0.01000000 0.01339400
v -0.03432700 -0.01000000 0.00682800
v -0.03432700 -0.01000000 0.00682800
v -0.03432700 -0.01000000 0.00682800
v -0.03432700 0.01000000 0.00682800
v -0.03432700 0.01000000 0.00682800
v -0.03432700 0.01000000 0.00682800
v -0.03500000 -0.01000000 0.00000000
v -0.03500000 -0.01000000 0.00000000
v -0.03500000 -0.01000000 0.00000000
v -0.03500000 0.01000000 0.00000000
v -0.03500000 0.01000000 0.00000000
v -0.03500000 0.01000000 0.00000000
v -0.03432700 -0.01000000 -0.00682800
v -0.03432700 -0.01000000 -0.00682800
v -0.03432700 -0.01000000 -0.00682800
v -0.03432700 0.01000000 -0.00682800
v -0.03432700 0.01000000 -0.00682800
v -0.03432700 0.01000000 -0.00682800
v -0.03233600 -0.01000000 -0.01339400
v -0.03233600 -0.01000000 -0.01339400
v -0.03233600 -0.01000000 -0.01339400
v -0.03233600 0.01000000 -0.01339400
v -0.03233600 0.01000000 -0.01339400
v -0.03233600 0.01000000 -0.01339400
v -0.02910100 -0.01000000 -0.01944500
v -0.02910100 -0.01000000 -0.01944500
v -0.02910100 -0.01000000 -0.01944500
v -0.02910100 0.01000000 -0.01944500
v -0.02910100 0.01000000 -0.01944500
v -0.02910100 0.01000000 -0.01944500
v -0.02474900 -0.01000000 -0.02474900
v -0.02474900 -0.01000000 -0.02474900
v -0.02474900 -0.01000000 -0.02474900
v -0.02474900 0.01000000 -0.02474900
v -0.02474900 0.01000000 -0.02474900
v -0.02474900 0.01000000 -0.02474900
v -0.01944500 -0.01000000 -0.02910100
v -0.01944500 -0.01000000 -0.02910100
v -0.01944500 -0.01000000 -0.02910100
v -0.01944500 0.01000000 -0.02910100
v -0.01944500 0.01000000 -0.02910100
v -0.01944500 0.01000000 -0.02910100
v -0.01339400 -0.01000000 -0.03233600
v -0.01339400 -0.01000000 -0.03233600
v -0.01339400 -0.01000000 -0.03233600
v -0.01339400 0.01000000 -0.03233600
v -0.01339400 0.01000000 -0.03233600
v -0.01339400 0.01000000 -0.03233600
v -0.00682800 -0.01000000 -0.03432700
v -0.00682800 -0.01000000 -0.03432700
v -0.00682800 -0.01000000 -0.03432700
v -0.00682800 0.01000000 -0.03432700
v -0.00682800 0.01000000 -0.03432700
v -0.00682800 0.01000000 -0.03432700
vn -0.09800000 -0.00000000 -0.99520000
vn -0.00000000 -1.00000000 -0.00000000
vn 0.09800000 -0.00000000 -0.99520000
vn -0.09800000 -0.00000000 -0.99520000
vn 0.09800000 -0.00000000 -0.99520000
vn -0.00000000 1.00000000 -0.00000000
vn 0.09800000 -0.00000000 -0.99520000
vn -0.00000000 -1.00000000 -0.00000000
vn 0.29030000 -0.00000000 -0.95690000
vn -0.00000000 1.00000000 -0.00000000
vn 0.09800000 -0.00000000 -0.99520000
vn 0.29030000 -0.00000000 -0.95690000
vn -0.00000000 -1.00000000 -0.00000000
vn 0.47140000 -0.00000000 -0.88190000
vn 0.29030000 -0.00000000 -0.95690000
vn -0.00000000 1.00000000 -0.00000000
vn 0.29030000 -0.00000000 -0.95690000
vn 0.47140000 -0.00000000 -0.88190000
vn 0.47140000 -0.00000000 -0.88190000
vn -0.00000000 -1.00000000 -0.00000000
vn 0.63440000 -0.00000000 -0.77300000
vn 0.63440000 -0.00000000 -0.77300000
vn 0.47140000 -0.00000000 -0.88190000
vn -0.00000000 1.00000000 -0.00000000
vn 0.77300000 -0.00000000 -0.63440000
vn 0.63440000 -0.00000000 -0.77300000
vn -0.00000000 -1.00000000 -0.00000000
vn 0.63440000 -0.00000000 -0.77300000
vn 0.77300000 -0.00000000 -0.63440000
vn -0.00000000 1.00000000 -0.00000000
vn -0.00000000 -1.00000000 -0.00000000
vn 0.88190000 -0.00000000 -0.47140000
vn 0.77300000 -0.00000000 -0.63440000
vn 0.77300000 -0.00000000 -0.63440000
vn -0.00000000 1.00000000 -0.00000000
vn 0.88190000 -0.00000000 -0.47140000
vn 0.88190000 -0.00000000 -0.47140000
vn 0.95690000 -0.00000000 -0.29030000
vn -0.00000000 -1.00000000 -0.00000000
vn -0.00000000 1.00000000 -0.00000000
vn 0.88190000 -0.00000000 -0.47140000
vn 0.95690000 -0.00000000 -0.29030000
vn 0.95690000 -0.00000000 -0.29030000
vn 0.99520000 -0.00000000 -0.09800000
vn -0.00000000 -1.00000000 -0.00000000
vn 0.95690000 -0.00000000 -0.29030000
vn -0.00000000 1.00000000 -0.00000000
vn 0.99520000 -0.00000000 -0.09800000
vn 0.99520000 -0.00000000 -0.09800000
vn 0.99520000 -0.00000000 0.09800000
vn -0.00000000 -1.00000000 -0.00000000
vn 0.99520000 -0.00000000 0.09800000
vn 0.99520000 -0.00000000 -0.09800000
vn -0.00000000 1.00000000 -0.00000000
vn -0.00000000 -1.00000000 -0.00000000
vn 0.99520000 -0.00000000 0.09800000
vn 0.95690000 -0.00000000 0.29030000
vn 0.95690000 -0.00000000 0.29030000
vn -0.00000000 1.00000000 -0.00000000
vn 0.99520000 -0.00000000 0.09800000
vn 0.88190000 -0.00000000 0.47140000
vn 0.95690000 -0.00000000 0.29030000
vn -0.00000000 -1.00000000 -0.00000000
vn 0.88190000 -0.00000000 0.47140000
vn 0.95690000 -0.00000000 0.29030000
vn -0.00000000 1.00000000 -0.00000000
vn -0.00000000 -1.00000000 -0.00000000
vn 0.77300000 -0.00000000 0.63440000
vn 0.88190000 -0.00000000 0.47140000
vn -0.00000000 1.00000000 -0.00000000
vn 0.88190000 -0.00000000 0.47140000
vn 0.77300000 -0.00000000 0.63440000
vn 0.63440000 -0.00000000 0.77300000
vn 0.77300000 -0.00000000 0.63440000
vn -0.00000000 -1.00000000 -0.00000000
vn 0.77300000 -0.00000000 0.63440000
vn -0.00000000 1.00000000 -0.00000000
vn 0.63440000 -0.00000000 0.77300000
vn 0.63440000 -0.00000000 0.77300000
vn 0.47140000 -0.00000000 0.88190000
vn -0.00000000 -1.00000000 -0.00000000
vn 0.63440000 -0.00000000 0.77300000
vn 0.47140000 -0.00000000 0.88190000
vn -0.00000000 1.00000000 -0.00000000
vn 0.29030000 -0.00000000 0.95690000
vn 0.47140000 -0.00000000 0.88190000
vn -0.00000000 -1.00000000 -0.00000000
vn -0.00000000 1.00000000 -0.00000000
vn 0.47140000 -0.00000000 0.88190000
vn 0.29030000 -0.00000000 0.95690000
vn 0.29030000 -0.00000000 0.95690000
vn 0.09800000 -0.00000000 0.99520000
vn -0.00000000 -1.00000000 -0.00000000
vn 0.29030000 -0.00000000 0.95690000
vn -0.00000000 1.00000000 -0.00000000
vn 0.09800000 -0.00000000 0.99520000
vn 0.09800000 -0.00000000 0.99520000
vn -0.09800000 -0.00000000 0.99520000
vn -0.00000000 -1.00000000 -0.00000000
vn -0.09800000 -0.00000000 0.99520000
vn 0.09800000 -0.00000000 0.99520000
vn -0.00000000 1.00000000 -0.00000000
vn -0.00000000 -1.00000000 -0.00000000
vn -0.09800000 -0.00000000 0.99520000
vn -0.29030000 -0.00000000 0.95690000
vn -0.00000000 1.00000000 -0.00000000
vn -0.09800000 -0.00000000 0.99520000
vn -0.29030000 -0.00000000 0.95690000
vn -0.47140000 -0.00000000 0.88190000
vn -0.00000000 -1.00000000 -0.00000000
vn -0.29030000 -0.00000000 0.95690000
vn -0.29030000 -0.00000000 0.95690000
vn -0.00000000 1.00000000 -0.00000000
vn -0.47140000 -0.00000000 0.88190000
vn -0.47140000 -0.00000000 0.88190000
vn -0.63440000 -0.00000000 0.77300000
vn -0.00000000 -1.00000000 -0.00000000
vn -0.63440000 -0.00000000 0.77300000
vn -0.47140000 -0.00000000 0.88190000
vn -0.00000000 1.00000000 -0.00000000
vn -0.00000000 -1.00000000 -0.00000000
vn -0.77300000 -0.00000000 0.63440000
vn -0.63440000 -0.00000000 0.77300000
vn -0.77300000 -0.00000000 0.63440000
vn -0.00000000 1.00000000 -0.00000000
vn -0.63440000 -0.00000000 0.77300000
vn -0.88190000 -0.00000000 0.47140000
vn -0.00000000 -1.00000000 -0.00000000
vn -0.77300000 -0.00000000 0.63440000
vn -0.00000000 1.00000000 -0.00000000
vn -0.77300000 -0.00000000 0.63440000
vn -0.88190000 -0.00000000 0.47140000
vn -0.95690000 -0.00000000 0.29030000
vn -0.88190000 -0.00000000 0.47140000
vn -0.00000000 -1.00000000 -0.00000000
vn -0.95690000 -0.00000000 0.29030000
vn -0.00000000 1.00000000 -0.00000000
vn -0.88190000 -0.00000000 0.47140000
vn -0.99520000 -0.00000000 0.09800000
vn -0.95690000 -0.00000000 0.29030000
vn -0.00000000 -1.00000000 -0.00000000
vn -0.00000000 1.00000000 -0.00000000
vn -0.99520000 -0.00000000 0.09800000
vn -0.95690000 -0.00000000 0.29030000
vn -0.99520000 -0.00000000 0.09800000
vn -0.99520000 -0.00000000 -0.09800000
vn -0.00000000 -1.00000000 -0.00000000
vn -0.99520000 -0.00000000 0.09800000
vn -0.00000000 1.00000000 -0.00000000
vn -0.99520000 -0.00000000 -0.09800000
vn -0.95690000 -0.00000000 -0.29030000
vn -0.00000000 -1.00000000 -0.00000000
vn -0.99520000 -0.00000000 -0.09800000
vn -0.00000000 1.00000000 -0.00000000
vn -0.95690000 -0.00000000 -0.29030000
vn -0.99520000 -0.00000000 -0.09800000
vn -0.00000000 -1.00000000 -0.00000000
vn -0.95690000 -0.00000000 -0.29030000
vn -0.88190000 -0.00000000 -0.47140000
vn -0.88190000 -0.00000000 -0.47140000
vn -0.95690000 -0.00000000 -0.29030000
vn -0.00000000 1.00000000 -0.00000000
vn -0.00000000 -1.00000000 -0.00000000
vn -0.88190000 -0.00000000 -0.47140000
vn -0.77300000 -0.00000000 -0.63440000
vn -0.77300000 -0.00000000 -0.63440000
vn -0.00000000 1.00000000 -0.00000000
vn -0.88190000 -0.00000000 -0.47140000
vn -0.00000000 -1.00000000 -0.00000000
vn -0.77300000 -0.00000000 -0.63440000
vn -0.63440000 -0.00000000 -0.77300000
vn -0.63440000 -0.00000000 -0.77300000
vn -0.00000000 1.00000000 -0.00000000
vn -0.77300000 -0.00000000 -0.63440000
vn -0.00000000 -1.00000000 -0.00000000
vn -0.47140000 -0.00000000 -0.88190000
vn -0.63440000 -0.00000000 -0.77300000
vn -0.63440000 -0.00000000 -0.77300000
vn -0.00000000 1.00000000 -0.00000000
vn -0.47140000 -0.00000000 -0.88190000
vn -0.47140000 -0.00000000 -0.88190000
vn -0.00000000 -1.00000000 -0.00000000
vn -0.29030000 -0.00000000 -0.95690000
vn -0.00000000 1.00000000 -0.00000000
vn -0.47140000 -0.00000000 -0.88190000
vn -0.29030000 -0.00000000 -0.95690000
vn -0.00000000 -1.00000000 -0.00000000
vn -0.09800000 -0.00000000 -0.99520000
vn -0.29030000 -0.00000000 -0.95690000
vn -0.29030000 -0.00000000 -0.95690000
vn -0.09800000 -0.00000000 -0.99520000
vn -0.00000000 1.00000000 -0.00000000
vt 0.45076800 0.43264900
vt 0.51903400 0.20627600
vt 0.73570000 0.43264900
vt 0.45076800 0.57511500
vt 0.73570000 0.57511500
vt 0.52200100 0.42979900
vt 0.72679600 0.43264900
vt 0.53237500 0.20496200
vt 0.72679600 0.43264900
vt 0.53534200 0.42848500
vt 0.72679600 0.57511500
vt 0.72679600 0.57511500
vt 0.54520400 0.20107000
vt 0.71789200 0.43264900
vt 0.71789200 0.43264900
vt 0.54817000 0.42459400
vt 0.71789200 0.57511500
vt 0.71789200 0.57511500
vt 0.70898800 0.43264900
vt 0.55702700 0.19475100
vt 0.70898800 0.43264900
vt 0.70898800 0.57511500
vt 0.70898800 0.57511500
vt 0.55999300 0.41827400
vt 0.70008400 0.43264900
vt 0.70008400 0.43264900
vt 0.56738900 0.18624700
vt 0.70008400 0.57511500
vt 0.70008400 0.57511500
vt 0.57035600 0.40977000
vt 0.57589400 0.17588400
vt 0.69118000 0.43264900
vt 0.69118000 0.43264900
vt 0.69118000 0.57511500
vt 0.57886000 0.39940700
vt 0.69118000 0.57511500
vt 0.68227600 0.43264900
vt 0.68227600 0.43264900
vt 0.58221300 0.16406100
vt 0.58517900 0.38758500
vt 0.68227600 0.57511500
vt 0.68227600 0.57511500
vt 0.67337200 0.43264900
vt 0.67337200 0.43264900
vt 0.58610400 0.15123300
vt 0.67337200 0.57511500
vt 0.58907100 0.37475600
vt 0.67337200 0.57511500
vt 0.66446700 0.43264900
vt 0.66446700 0.43264900
vt 0.58741800 0.13789200
vt 0.66446700 0.57511500
vt 0.66446700 0.57511500
vt 0.59038500 0.36141500
vt 0.58610400 0.12455100
vt 0.65556300 0.43264900
vt 0.65556300 0.43264900
vt 0.65556300 0.57511500
vt 0.58907100 0.34807400
vt 0.65556300 0.57511500
vt 0.64665900 0.43264900
vt 0.64665900 0.43264900
vt 0.58221300 0.11172300
vt 0.64665900 0.57511500
vt 0.64665900 0.57511500
vt 0.58517900 0.33524600
vt 0.57589400 0.09990000
vt 0.63775500 0.43264900
vt 0.63775500 0.43264900
vt 0.57886000 0.32342300
vt 0.63775500 0.57511500
vt 0.63775500 0.57511500
vt 0.62885100 0.43264900
vt 0.62885100 0.43264900
vt 0.56738900 0.08953700
vt 0.62885100 0.57511500
vt 0.57035600 0.31306100
vt 0.62885100 0.57511500
vt 0.61994700 0.43264900
vt 0.61994700 0.43264900
vt 0.55702700 0.08103300
vt 0.61994700 0.57511500
vt 0.61994700 0.57511500
vt 0.55999300 0.30455600
vt 0.61104200 0.43264900
vt 0.61104200 0.43264900
vt 0.54520400 0.07471300
vt 0.54817000 0.29823700
vt 0.61104200 0.57511500
vt 0.61104200 0.57511500
vt 0.60213800 0.43264900
vt 0.60213800 0.43264900
vt 0.53237500 0.07082200
vt 0.60213800 0.57511500
vt 0.53534200 0.29434500
vt 0.60213800 0.57511500
vt 0.59323400 0.43264900
vt 0.59323400 0.43264900
vt 0.51903400 0.06950800
vt 0.59323400 0.57511500
vt 0.59323400 0.57511500
vt 0.52200100 0.29303200
vt 0.50569300 0.07082200
vt 0.58433000 0.43264900
vt 0.58433000 0.43264900
vt 0.50866000 0.29434500
vt 0.58433000 0.57511500
vt 0.58433000 0.57511500
vt 0.57542600 0.43264900
vt 0.49286500 0.07471300
vt 0.57542600 0.43264900
vt 0.57542600 0.57511500
vt 0.49583200 0.29823700
vt 0.57542600 0.57511500
vt 0.56652200 0.43264900
vt 0.56652200 0.43264900
vt 0.48104200 0.08103300
vt 0.56652200 0.57511500
vt 0.56652200 0.57511500
vt 0.48400900 0.30455600
vt 0.47068000 0.08953700
vt 0.55761800 0.43264900
vt 0.55761800 0.43264900
vt 0.55761800 0.57511500
vt 0.47364600 0.31306100
vt 0.55761800 0.57511500
vt 0.54871300 0.43264900
vt 0.46217500 0.09990000
vt 0.54871300 0.43264900
vt 0.46514200 0.32342300
vt 0.54871300 0.57511500
vt 0.54871300 0.57511500
vt 0.53980900 0.43264900
vt 0.53980900 0.43264900
vt 0.45585600 0.11172300
vt 0.53980900 0.57511500
vt 0.45882300 0.33524600
vt 0.53980900 0.57511500
vt 0.53090500 0.43264900
vt 0.53090500 0.43264900
vt 0.45196500 0.12455100
vt 0.45493100 0.34807400
vt 0.53090500 0.57511500
vt 0.53090500 0.57511500
vt 0.52200100 0.43264900
vt 0.52200100 0.43264900
vt 0.45065100 0.13789200
vt 0.52200100 0.57511500
vt 0.45361700 0.36141500
vt 0.52200100 0.57511500
vt 0.51309700 0.43264900
vt 0.45196500 0.15123300
vt 0.51309700 0.43264900
vt 0.45493100 0.37475600
vt 0.51309700 0.57511500
vt 0.51309700 0.57511500
vt 0.45585600 0.16406100
vt 0.50419300 0.43264900
vt 0.50419300 0.43264900
vt 0.50419300 0.57511500
vt 0.50419300 0.57511500
vt 0.45882300 0.38758500
vt 0.46217500 0.17588400
vt 0.49528900 0.43264900
vt 0.49528900 0.43264900
vt 0.49528900 0.57511500
vt 0.46514200 0.39940700
vt 0.49528900 0.57511500
vt 0.47068000 0.18624700
vt 0.48638400 0.43264900
vt 0.48638400 0.43264900
vt 0.48638400 0.57511500
vt 0.47364600 0.40977000
vt 0.48638400 0.57511500
vt 0.48104200 0.19475100
vt 0.47748000 0.43264900
vt 0.47748000 0.43264900
vt 0.47748000 0.57511500
vt 0.48400900 0.41827400
vt 0.47748000 0.57511500
vt 0.46857600 0.43264900
vt 0.49286500 0.20107000
vt 0.46857600 0.43264900
vt 0.49583200 0.42459400
vt 0.46857600 0.57511500
vt 0.46857600 0.57511500
vt 0.50569300 0.20496200
vt 0.45967200 0.43264900
vt 0.45967200 0.43264900
vt 0.45967200 0.57511500
vt 0.45967200 0.57511500
vt 0.50866000 0.42848500
f 3/3/3 5/5/5 11/11/11
f 11/11/11 7/7/7 3/3/3
f 9/9/9 12/12/12 17/17/17
f 17/17/17 15/15/15 9/9/9
f 14/14/14 18/18/18 23/23/23
f 23/23/23 19/19/19 14/14/14
f 21/21/21 22/22/22 28/28/28
f 28/28/28 26/26/26 21/21/21
f 25/25/25 29/29/29 34/34/34
f 34/34/34 33/33/33 25/25/25
f 32/32/32 36/36/36 41/41/41
f 41/41/41 37/37/37 32/32/32
f 38/38/38 42/42/42 46/46/46
f 46/46/46 43/43/43 38/38/38
f 44/44/44 48/48/48 53/53/53
f 53/53/53 49/49/49 44/44/44
f 50/50/50 52/52/52 60/60/60
f 60/60/60 56/56/56 50/50/50
f 57/57/57 58/58/58 65/65/65
f 65/65/65 62/62/62 57/57/57
f 61/61/61 64/64/64 71/71/71
f 71/71/71 69/69/69 61/61/61
f 68/68/68 72/72/72 76/76/76
f 76/76/76 74/74/74 68/68/68
f 73/73/73 78/78/78 82/82/82
f 82/82/82 79/79/79 73/73/73
f 80/80/80 83/83/83 89/89/89
f 89/89/89 86/86/86 80/80/80
f 85/85/85 90/90/90 94/94/94
f 94/94/94 91/91/91 85/85/85
f 92/92/92 96/96/96 101/101/101
f 101/101/101 97/97/97 92/92/92
f 98/98/98 100/100/100 107/107/107
f 107/107/107 104/104/104 98/98/98
f 105/105/105 108/108/108 112/112/112
f 112/112/112 111/111/111 105/105/105
f 109/109/109 114/114/114 119/119/119
f 119/119/119 115/115/115 109/109/109
f 116/116/116 118/118/118 126/126/126
f 126/126/126 123/123/123 116/116/116
f 122/122/122 124/124/124 131/131/131
f 131/131/131 129/129/129 122/122/122
f 127/127/127 132/132/132 138/138/138
f 138/138/138 134/134/134 127/127/127
f 133/133/133 136/136/136 144/144/144
f 144/144/144 140/140/140 133/133/133
f 139/139/139 143/143/143 148/148/148
f 148/148/148 145/145/145 139/139/139
f 146/146/146 150/150/150 156/156/156
f 156/156/156 153/153/153 146/146/146
f 151/151/151 155/155/155 161/161/161
f 161/161/161 158/158/158 151/151/151
f 159/159/159 160/160/160 168/168/168
f 168/168/168 164/164/164 159/159/159
f 165/165/165 166/166/166 174/174/174
f 174/174/174 170/170/170 165/165/165
f 171/171/171 172/172/172 178/178/178
f 178/178/178 177/177/177 171/171/171
f 176/176/176 180/180/180 185/185/185
f 185/185/185 181/181/181 176/176/176
f 10/10/10 6/6/6 192/192/192
f 10/10/10 192/192/192 184/184/184
f 10/10/10 184/184/184 179/179/179
f 10/10/10 179/179/179 173/173/173
f 10/10/10 173/173/173 167/167/167
f 10/10/10 167/167/167 162/162/162
f 10/10/10 162/162/162 154/154/154
f 10/10/10 154/154/154 149/149/149
f 10/10/10 149/149/149 142/142/142
f 10/10/10 142/142/142 137/137/137
f 10/10/10 137/137/137 130/130/130
f 10/10/10 130/130/130 125/125/125
f 10/10/10 125/125/125 120/120/120
f 10/10/10 120/120/120 113/113/113
f 10/10/10 113/113/113 106/106/106
f 10/10/10 106/106/106 102/102/102
f 10/10/10 102/102/102 95/95/95
f 10/10/10 95/95/95 88/88/88
f 10/10/10 88/88/88 84/84/84
f 10/10/10 84/84/84 77/77/77
f 10/10/10 77/77/77 70/70/70
f 10/10/10 70/70/70 66/66/66
f 10/10/10 66/66/66 59/59/59
f 10/10/10 59/59/59 54/54/54
f 10/10/10 54/54/54 47/47/47
f 10/10/10 47/47/47 40/40/40
f 10/10/10 40/40/40 35/35/35
f 10/10/10 35/35/35 30/30/30
f 10/10/10 30/30/30 24/24/24
f 10/10/10 24/24/24 16/16/16
f 183/183/183 186/186/186 190/190/190
f 190/190/190 189/189/189 183/183/183
f 188/188/188 191/191/191 4/4/4
f 4/4/4 1/1/1 188/188/188
f 2/2/2 8/8/8 13/13/13
f 2/2/2 13/13/13 20/20/20
f 2/2/2 20/20/20 27/27/27
f 2/2/2 27/27/27 31/31/31
f 2/2/2 31/31/31 39/39/39
f 2/2/2 39/39/39 45/45/45
f 2/2/2 45/45/45 51/51/51
f 2/2/2 51/51/51 55/55/55
f 2/2/2 55/55/55 63/63/63
f 2/2/2 63/63/63 67/67/67
f 2/2/2 67/67/67 75/75/75
f 2/2/2 75/75/75 81/81/81
f 2/2/2 81/81/81 87/87/87
f 2/2/2 87/87/87 93/93/93
f 2/2/2 93/93/93 99/99/99
f 2/2/2 99/99/99 103/103/103
f 2/2/2 103/103/103 110/110/110
f 2/2/2 110/110/110 117/117/117
f 2/2/2 117/117/117 121/121/121
f 2/2/2 121/121/121 128/128/128
f 2/2/2 128/128/128 135/135/135
f 2/2/2 135/135/135 141/141/141
f 2/2/2 141/141/141 147/147/147
f 2/2/2 147/147/147 152/152/152
f 2/2/2 152/152/152 157/157/157
f 2/2/2 157/157/157 163/163/163
f 2/2/2 163/163/163 169/169/169
f 2/2/2 169/169/169 175/175/175
f 2/2/2 175/175/175 182/182/182
f 2/2/2 182/182/182 187/187/187

