mtllib material.mtl
usemtl material_0
v 0.04500000 0.01000000 -0.04500000
v 0.04500000 0.01000000 -0.04500000
v 0.04500000 0.01000000 -0.04500000
v 0.01887200 -0.01000000 0.01887200
v 0.01887200 -0.01000000 0.01887200
v 0.01887200 -0.01000000 0.01887200
v -0.04500000 -0.01000000 0.04500000
v -0.04500000 -0.01000000 0.04500000
v -0.04500000 -0.01000000 0.04500000
v 0.01887200 0.01000000 0.01887200
v 0.01887200 0.01000000 0.01887200
v 0.01887200 0.01000000 0.01887200
v 0.04500000 -0.01000000 -0.04500000
v 0.04500000 -0.01000000 -0.04500000
v 0.04500000 -0.01000000 -0.04500000
v -0.01887200 -0.01000000 -0.01887200
v -0.01887200 -0.01000000 -0.01887200
v -0.01887200 -0.01000000 -0.01887200
v -0.01887200 0.01000000 -0.01887200
v -0.01887200 0.01000000 -0.01887200
v -0.01887200 0.01000000 -0.01887200
v -0.04500000 0.01000000 0.04500000
v -0.04500000 0.01000000 0.04500000
v -0.04500000 0.01000000 0.04500000
v 0.03576600 0.00081800 -0.02242600
vn -0.37860000 -0.00000000 -0.92560000
vn -0.00000000 1.00000000 -0.00000000
vn 0.92560000 -0.00000000 0.37860000
vn 0.37860000 -0.00000000 0.92560000
vn 0.92560000 -0.00000000 0.37860000
vn -0.00000000 -1.00000000 -0.00000000
vn -0.92560000 -0.00000000 -0.37860000
vn 0.37860000 -0.00000000 0.92560000
vn -0.00000000 -1.00000000 -0.00000000
vn 0.37860000 -0.00000000 0.92560000
vn -0.00000000 1.00000000 -0.00000000
vn 0.92560000 -0.00000000 0.37860000
vn -0.00000000 -1.00000000 -0.00000000
vn 0.92560000 -0.00000000 0.37860000
vn -0.37860000 -0.00000000 -0.92560000
vn -0.92560000 -0.00000000 -0.37860000
vn -0.37860000 -0.00000000 -0.92560000
vn -0.00000000 -1.00000000 -0.00000000
vn -0.00000000 1.00000000 -0.00000000
vn -0.37860000 -0.00000000 -0.92560000
vn -0.92560000 -0.00000000 -0.37860000
vn -0.92560000 -0.00000000 -0.37860000
vn -0.00000000 1.00000000 -0.00000000
vn 0.37860000 -0.00000000 0.92560000
vn 0.92560000 -0.00000000 0.37860000
vt 0.55216300 0.65202200
vt 0.39010200 0.32468900
vt 0.88597700 0.86817200
vt 0.68608700 0.42424500
vt 0.99888100 0.70888100
vt 0.49274900 0.12011700
vt 0.29050000 0.69586300
vt 0.53780400 0.42424500
vt 0.32597200 0.11792800
vt 0.68608700 0.53715000
vt 0.22332600 0.32250000
vt 0.88597700 0.70888100
vt 0.61119800 0.00268900
vt 0.99888100 0.86817200
vt 0.55216300 0.53911800
vt 0.29050000 0.53657200
vt 0.70044600 0.53911800
vt 0.44442100 0.00050000
vt 0.27165400 0.44211700
vt 0.70044600 0.65202200
vt 0.17759500 0.53657200
vt 0.17759500 0.69586300
vt 0.10487700 0.43992800
vt 0.53780400 0.53715000
vt 0.93780900 0.81187500
f 17/17/17 20/20/20 15/15/15
f 2/2/2 19/19/19 23/23/23
f 10/10/10 24/24/24 4/4/4
f 2/2/2 23/23/23 11/11/11
f 8/8/8 4/4/4 24/24/24
f 22/22/22 16/16/16 7/7/7
f 22/22/22 21/21/21 16/16/16
f 5/5/5 14/14/14 25/25/25
f 25/25/25 12/12/12 5/5/5
f 12/12/12 25/25/25 3/3/3
f 3/3/3 25/25/25 14/14/14
f 20/20/20 1/1/1 15/15/15
f 18/18/18 13/13/13 6/6/6
f 9/9/9 18/18/18 6/6/6

