mtllib material.mtl
usemtl material_0
v -0.00512300 -0.00990900 -0.02390500
v -0.00512300 -0.00990900 -0.02390500
v -0.00512300 -0.00990900 -0.02390500
v -0.00512300 -0.00990900 -0.02390500
v -0.00512300 -0.00990900 -0.02390500
v -0.00512300 -0.00990900 -0.02390500
v -0.00512300 -0.00990900 -0.02390500
v -0.00511600 0.00994600 -0.02389800
v -0.00511600 0.00994600 -0.02389800
v -0.00511600 0.00994600 -0.02389800
v -0.00511600 0.00994600 -0.02389800
v -0.00511600 0.00994600 -0.02389800
v -0.00511600 0.00994600 -0.02389800
v -0.03359700 0.00996700 -0.03978400
v -0.03359700 0.00996700 -0.03978400
v -0.03359700 0.00996700 -0.03978400
v -0.03359700 0.00996700 -0.03978400
v -0.03359700 0.00996700 -0.03978400
v -0.03363000 -0.00987300 -0.03980500
v -0.03363000 -0.00987300 -0.03980500
v -0.03363000 -0.00987300 -0.03980500
v 0.00040000 -0.00995500 0.01199700
v 0.00040000 -0.00995500 0.01199700
v 0.00040000 -0.00995500 0.01199700
v 0.00040000 -0.00995500 0.01199700
v 0.00040000 -0.00995500 0.01199700
v 0.00040000 -0.00995500 0.01199700
v 0.00040000 -0.00995500 0.01199700
v 0.02198400 -0.00994700 -0.04224800
v 0.02198400 -0.00994700 -0.04224800
v 0.02198400 -0.00994700 -0.04224800
v 0.02198400 -0.00994700 -0.04224800
v 0.02198400 -0.00994700 -0.04224800
v -0.04857800 -0.00987500 0.01581600
v -0.04857800 -0.00987500 0.01581600
v -0.04857800 -0.00987500 0.01581600
v -0.04857800 -0.00987500 0.01581600
v -0.04857800 -0.00987500 0.01581600
v -0.01625000 -0.00990800 0.01750500
v -0.01625000 -0.00990800 0.01750500
v -0.01625000 -0.00990800 0.01750500
v -0.01625000 -0.00990800 0.01750500
v -0.01625000 -0.00990800 0.01750500
v -0.01625000 -0.00990800 0.01750500
v -0.01625000 -0.00990800 0.01750500
v -0.02519000 -0.00986700 -0.00738900
v -0.02519000 -0.00986700 -0.00738900
v -0.02519000 -0.00986700 -0.00738900
v -0.02519000 -0.00986700 -0.00738900
v -0.02519000 -0.00986700 -0.00738900
v -0.02519000 -0.00986700 -0.00738900
v 0.00933700 -0.00999400 0.01637800
v 0.00933700 -0.00999400 0.01637800
v 0.00933700 -0.00999400 0.01637800
v 0.00933700 -0.00999400 0.01637800
v 0.00933700 -0.00999400 0.01637800
v 0.00933700 -0.00999400 0.01637800
v 0.00933700 -0.00999400 0.01637800
v 0.04140900 -0.00999600 0.01186100
v 0.04140900 -0.00999600 0.01186100
v 0.04140900 -0.00999600 0.01186100
v 0.04140900 -0.00999600 0.01186100
v 0.02200800 0.00990000 -0.04224500
v 0.02200800 0.00990000 -0.04224500
v 0.02200800 0.00990000 -0.04224500
v 0.01623400 0.00985300 -0.00921400
v 0.01623400 0.00985300 -0.00921400
v 0.01623400 0.00985300 -0.00921400
v 0.01623400 0.00985300 -0.00921400
v 0.01623400 0.00985300 -0.00921400
v 0.01623400 0.00985300 -0.00921400
v 0.01623400 0.00985300 -0.00921400
v 0.04145100 0.00985100 0.01187400
v 0.04145100 0.00985100 0.01187400
v 0.04145100 0.00985100 0.01187400
v 0.04145100 0.00985100 0.01187400
v 0.04145100 0.00985100 0.01187400
v 0.00935200 0.00986800 0.01639000
v 0.00935200 0.00986800 0.01639000
v 0.00935200 0.00986800 0.01639000
v 0.00935200 0.00986800 0.01639000
v 0.00935200 0.00986800 0.01639000
v 0.00935200 0.00986800 0.01639000
v -0.02516800 0.00999000 -0.00738500
v -0.02516800 0.00999000 -0.00738500
v -0.02516800 0.00999000 -0.00738500
v -0.02516800 0.00999000 -0.00738500
v -0.02516800 0.00999000 -0.00738500
v -0.02516800 0.00999000 -0.00738500
v -0.02516800 0.00999000 -0.00738500
v -0.02516800 0.00999000 -0.00738500
v 0.01621400 -0.00996900 -0.00921100
v 0.01621400 -0.00996900 -0.00921100
v 0.01621400 -0.00996900 -0.00921100
v 0.01621400 -0.00996900 -0.00921100
v 0.01621400 -0.00996900 -0.00921100
v 0.01621400 -0.00996900 -0.00921100
v -0.00217600 0.00989200 0.04776200
v -0.00217600 0.00989200 0.04776200
v -0.00217600 0.00989200 0.04776200
v -0.00217600 0.00989200 0.04776200
v -0.00217600 0.00989200 0.04776200
v -0.00219700 -0.00995000 0.04774700
v -0.00219700 -0.00995000 0.04774700
v -0.00219700 -0.00995000 0.04774700
v -0.01624100 0.00993100 0.01750300
v -0.01624100 0.00993100 0.01750300
v -0.01624100 0.00993100 0.01750300
v -0.01624100 0.00993100 0.01750300
v -0.01624100 0.00993100 0.01750300
v -0.04854100 0.00996500 0.01581500
v -0.04854100 0.00996500 0.01581500
v -0.04854100 0.00996500 0.01581500
v -0.04854100 0.00996500 0.01581500
vn 0.48710000 0.00020000 -0.87330000
vn 0.48710000 0.00010000 -0.87330000
vn -0.00160000 -1.00000000 0.00060000
vn -0.00210000 -1.00000000 -0.00100000
vn -0.00220000 -1.00000000 -0.00100000
vn -0.00280000 -1.00000000 -0.00090000
vn -0.56040000 0.00050000 -0.82820000
vn 0.00300000 1.00000000 0.00190000
vn -0.56030000 0.00080000 -0.82830000
vn -0.56040000 0.00050000 -0.82820000
vn 0.00140000 1.00000000 -0.00110000
vn 0.48710000 0.00020000 -0.87330000
vn 0.00340000 1.00000000 0.00140000
vn -0.96770000 0.00130000 0.25200000
vn 0.00140000 1.00000000 -0.00110000
vn 0.48710000 0.00020000 -0.87330000
vn -0.96780000 0.00100000 0.25180000
vn 0.48710000 0.00010000 -0.87330000
vn -0.00160000 -1.00000000 0.00060000
vn -0.96770000 0.00130000 0.25200000
vn 0.48710000 0.00010000 -0.87330000
vn -0.00100000 -1.00000000 -0.00010000
vn -0.00180000 -1.00000000 -0.00220000
vn -0.00280000 -1.00000000 -0.00090000
vn -0.00340000 -1.00000000 -0.00180000
vn -0.00100000 -1.00000000 -0.00670000
vn -0.00130000 -1.00000000 0.00470000
vn -0.00220000 -1.00000000 -0.00100000
vn 0.98510000 -0.00120000 0.17220000
vn -0.00210000 -1.00000000 -0.00100000
vn 0.98510000 -0.00090000 0.17210000
vn -0.56030000 0.00080000 -0.82830000
vn -0.56040000 0.00050000 -0.82820000
vn -0.05220000 0.00010000 0.99860000
vn -0.00130000 -1.00000000 0.00470000
vn -0.70450000 0.00130000 -0.70970000
vn -0.00180000 -1.00000000 -0.00220000
vn -0.70430000 0.00090000 -0.70990000
vn -0.90680000 0.00040000 0.42150000
vn -0.00130000 -1.00000000 0.00470000
vn -0.00340000 -1.00000000 -0.00180000
vn -0.05220000 0.00020000 0.99860000
vn -0.90690000 0.00070000 0.42140000
vn -0.00330000 -1.00000000 0.00020000
vn -0.05220000 0.00010000 0.99860000
vn -0.00280000 -1.00000000 -0.00090000
vn -0.00160000 -1.00000000 0.00060000
vn -0.00180000 -1.00000000 -0.00220000
vn -0.96770000 0.00130000 0.25200000
vn -0.96780000 0.00100000 0.25180000
vn -0.70430000 0.00090000 -0.70990000
vn 0.93860000 -0.00130000 0.34510000
vn -0.00340000 -1.00000000 -0.00180000
vn 0.93860000 -0.00090000 0.34490000
vn -0.00100000 -1.00000000 -0.00670000
vn 0.13950000 -0.00100000 0.99020000
vn -0.00330000 -1.00000000 0.00020000
vn 0.13930000 -0.00070000 0.99020000
vn -0.00100000 -1.00000000 -0.00670000
vn 0.64150000 -0.00090000 -0.76710000
vn 0.13950000 -0.00100000 0.99020000
vn -0.00100000 -1.00000000 -0.00010000
vn -0.56030000 0.00080000 -0.82830000
vn 0.00300000 1.00000000 0.00190000
vn 0.98510000 -0.00120000 0.17220000
vn 0.00050000 1.00000000 -0.00050000
vn 0.64150000 -0.00080000 -0.76710000
vn 0.98510000 -0.00090000 0.17210000
vn 0.98510000 -0.00120000 0.17220000
vn 0.00300000 1.00000000 0.00190000
vn 0.00330000 1.00000000 0.00030000
vn 0.00340000 1.00000000 0.00140000
vn 0.64150000 -0.00080000 -0.76710000
vn 0.13930000 -0.00070000 0.99020000
vn 0.64150000 -0.00090000 -0.76710000
vn 0.13950000 -0.00100000 0.99020000
vn 0.00050000 1.00000000 -0.00050000
vn 0.93860000 -0.00090000 0.34490000
vn 0.00330000 1.00000000 0.00030000
vn 0.00250000 1.00000000 0.00020000
vn 0.13930000 -0.00070000 0.99020000
vn 0.00250000 1.00000000 0.00150000
vn 0.00050000 1.00000000 -0.00050000
vn 0.00330000 1.00000000 0.00030000
vn -0.70450000 0.00130000 -0.70970000
vn -0.70430000 0.00090000 -0.70990000
vn -0.96780000 0.00100000 0.25180000
vn 0.00340000 1.00000000 0.00140000
vn 0.00250000 1.00000000 0.00150000
vn 0.00140000 1.00000000 -0.00110000
vn 0.00090000 1.00000000 0.00200000
vn -0.00210000 -1.00000000 -0.00100000
vn 0.64150000 -0.00080000 -0.76710000
vn 0.98510000 -0.00090000 0.17210000
vn 0.64150000 -0.00090000 -0.76710000
vn -0.00100000 -1.00000000 -0.00010000
vn -0.00220000 -1.00000000 -0.00100000
vn 0.00250000 1.00000000 0.00020000
vn 0.93860000 -0.00090000 0.34490000
vn 0.93860000 -0.00130000 0.34510000
vn -0.90680000 0.00040000 0.42150000
vn -0.90690000 0.00070000 0.42140000
vn -0.00330000 -1.00000000 0.00020000
vn -0.90690000 0.00070000 0.42140000
vn 0.93860000 -0.00130000 0.34510000
vn 0.00250000 1.00000000 0.00150000
vn -0.05220000 0.00020000 0.99860000
vn 0.00250000 1.00000000 0.00020000
vn -0.90680000 0.00040000 0.42150000
vn 0.00090000 1.00000000 0.00200000
vn -0.05220000 0.00010000 0.99860000
vn -0.70450000 0.00130000 -0.70970000
vn -0.05220000 0.00020000 0.99860000
vn 0.00090000 1.00000000 0.00200000
vt 0.53096000 0.36044500
vt 0.53096000 0.36044500
vt 0.33447700 0.08619000
vt 0.33447700 0.08619000
vt 0.33447700 0.08619000
vt 0.33447700 0.08619000
vt 0.64008200 0.78669500
vt 0.74186200 0.35088400
vt 0.73142100 0.78670200
vt 0.73142100 0.78670200
vt 0.74186200 0.35088400
vt 0.53094600 0.45178400
vt 0.74186200 0.35088400
vt 0.69198000 0.59388200
vt 0.74654200 0.29423400
vt 0.58627300 0.45186600
vt 0.69198000 0.59388200
vt 0.58627300 0.45186600
vt 0.28585900 0.05666900
vt 0.69198200 0.50254200
vt 0.58632000 0.36052700
vt 0.34052300 0.14093500
vt 0.34052300 0.14093500
vt 0.34052300 0.14093500
vt 0.34052300 0.14093500
vt 0.34052300 0.14093500
vt 0.34052300 0.14093500
vt 0.34052300 0.14093500
vt 0.63987500 0.68858900
vt 0.38367600 0.05764800
vt 0.63987500 0.68858900
vt 0.63987500 0.84357300
vt 0.63987500 0.84357300
vt 0.58657000 0.34758900
vt 0.25470300 0.14939300
vt 0.78979500 0.50252800
vt 0.25470300 0.14939300
vt 0.78979500 0.50252800
vt 0.35969900 0.45040400
vt 0.31128000 0.15522300
vt 0.31128000 0.15522300
vt 0.53095900 0.34769200
vt 0.35969900 0.45040400
vt 0.31128000 0.15522300
vt 0.53095900 0.34769200
vt 0.29780300 0.11228200
vt 0.29780300 0.11228200
vt 0.29780300 0.11228200
vt 0.74118200 0.50271000
vt 0.74118200 0.50271000
vt 0.74118200 0.50271000
vt 0.63987500 0.78354300
vt 0.35628600 0.15567500
vt 0.63987500 0.78354300
vt 0.35628600 0.15567500
vt 0.53094500 0.46463900
vt 0.35628600 0.15567500
vt 0.53094500 0.46463900
vt 0.41297000 0.15098100
vt 0.57348100 0.66964500
vt 0.58340300 0.46470100
vt 0.41297000 0.15098100
vt 0.73121400 0.84360000
vt 0.68984100 0.37393600
vt 0.63987900 0.59725000
vt 0.74230100 0.39589600
vt 0.52149500 0.57834600
vt 0.69655500 0.59748400
vt 0.69655500 0.59748400
vt 0.74230100 0.39589600
vt 0.74230100 0.39589600
vt 0.74230100 0.39589600
vt 0.57351900 0.57830600
vt 0.58344400 0.55604000
vt 0.57351900 0.57830600
vt 0.58344400 0.55604000
vt 0.74812300 0.45250300
vt 0.63988200 0.69220400
vt 0.78525600 0.40937600
vt 0.78525600 0.40937600
vt 0.53096600 0.55597800
vt 0.78525600 0.40937600
vt 0.78525600 0.40937600
vt 0.78452100 0.33656000
vt 0.74118300 0.59405000
vt 0.74118300 0.59405000
vt 0.74118300 0.59405000
vt 0.78452100 0.33656000
vt 0.78452100 0.33656000
vt 0.78452100 0.33656000
vt 0.78452100 0.33656000
vt 0.37062100 0.11301100
vt 0.52147400 0.66968500
vt 0.69656000 0.68882300
vt 0.52147400 0.66968500
vt 0.37062100 0.11301100
vt 0.37062100 0.11301100
vt 0.84085900 0.42134100
vt 0.69645400 0.69197200
vt 0.69645400 0.69197200
vt 0.45084300 0.40730100
vt 0.45084300 0.40730100
vt 0.33325900 0.20768200
vt 0.35950400 0.40730400
vt 0.69645400 0.78331200
vt 0.81133900 0.37269200
vt 0.53094500 0.25635300
vt 0.81133900 0.37269200
vt 0.45103900 0.45040700
vt 0.81133900 0.37269200
vt 0.58652900 0.25625000
vt 0.78979200 0.59386700
vt 0.58652900 0.25625000
vt 0.83986600 0.32352300
f 16/16/16 12/12/12 1/1/1
f 73/73/73 93/93/93 67/67/67
f 52/52/52 100/100/100 105/105/105
f 11/11/11 15/15/15 90/90/90
f 91/91/91 114/114/114 110/110/110
f 83/83/83 77/77/77 66/66/66
f 71/71/71 84/84/84 79/79/79
f 88/88/88 72/72/72 13/13/13
f 70/70/70 64/64/64 8/8/8
f 108/108/108 98/98/98 80/80/80
f 82/82/82 89/89/89 106/106/106
f 50/50/50 87/87/87 17/17/17
f 49/49/49 14/14/14 20/20/20
f 2/2/2 21/21/21 18/18/18
f 33/33/33 7/7/7 10/10/10
f 9/9/9 63/63/63 32/32/32
f 29/29/29 65/65/65 69/69/69
f 31/31/31 68/68/68 94/94/94
f 95/95/95 75/75/75 60/60/60
f 81/81/81 58/58/58 74/74/74
f 56/56/56 61/61/61 76/76/76
f 54/54/54 78/78/78 99/99/99
f 43/43/43 104/104/104 102/102/102
f 101/101/101 109/109/109 39/39/39
f 42/42/42 107/107/107 113/113/113
f 45/45/45 111/111/111 34/34/34
f 36/36/36 112/112/112 85/85/85
f 38/38/38 86/86/86 51/51/51
f 55/55/55 26/26/26 59/59/59
f 41/41/41 25/25/25 53/53/53
f 57/57/57 103/103/103 44/44/44
f 35/35/35 27/27/27 40/40/40
f 96/96/96 62/62/62 22/22/22
f 47/47/47 19/19/19 3/3/3
f 6/6/6 24/24/24 46/46/46
f 5/5/5 97/97/97 28/28/28
f 4/4/4 30/30/30 92/92/92
f 23/23/23 37/37/37 48/48/48

