mtllib material.mtl
usemtl material_0
v 0.03943600 -0.01000000 0.01203200
v 0.03943600 -0.01000000 0.01203200
v 0.03943600 -0.01000000 0.01203200
v -0.05056400 -0.01000000 0.03340700
v -0.05056400 -0.01000000 0.03340700
v -0.05056400 -0.01000000 0.03340700
v -0.02852300 -0.01000000 -0.05659300
v -0.02852300 -0.01000000 -0.05659300
v -0.02852300 -0.01000000 -0.05659300
v -0.02852300 0.01000000 -0.05659300
v -0.02852300 0.01000000 -0.05659300
v -0.02852300 0.01000000 -0.05659300
v 0.03943600 0.01000000 0.01203200
v 0.03943600 0.01000000 0.01203200
v 0.03943600 0.01000000 0.01203200
v -0.05056400 0.01000000 0.03340700
v -0.05056400 0.01000000 0.03340700
v -0.05056400 0.01000000 0.03340700
vn 0.71050000 -0.00000000 -0.70370000
vn 0.23110000 -0.00000000 0.97290000
vn -0.00000000 -1.00000000 -0.00000000
vn -0.97130000 -0.00000000 -0.23790000
vn -0.00000000 -1.00000000 -0.00000000
vn 0.23110000 -0.00000000 0.97290000
vn -0.00000000 -1.00000000 -0.00000000
vn 0.71050000 -0.00000000 -0.70370000
vn -0.97130000 -0.00000000 -0.23790000
vn -0.00000000 1.00000000 -0.00000000
vn 0.71050000 -0.00000000 -0.70370000
vn -0.97130000 -0.00000000 -0.23790000
vn 0.71050000 -0.00000000 -0.70370000
vn 0.23110000 -0.00000000 0.97290000
vn -0.00000000 1.00000000 -0.00000000
vn -0.97130000 -0.00000000 -0.23790000
vn 0.23110000 -0.00000000 0.97290000
vn -0.00000000 1.00000000 -0.00000000
vt 0.57009400 0.57318000
vt 0.57009400 0.57318000
vt 0.56207600 0.18473500
vt 0.57009400 0.29082000
vt 0.47409400 0.12302200
vt 0.57009400 0.29082000
vt 0.56207600 0.07682000
vt 0.38853300 0.41700300
vt 0.38853300 0.41700300
vt 0.50039200 0.42388400
vt 0.50039200 0.42388400
vt 0.50039200 0.42388400
vt 0.50078900 0.42296000
vt 0.50078900 0.42296000
vt 0.50078900 0.42296000
vt 0.50050300 0.42196700
vt 0.50050300 0.42196700
vt 0.50050300 0.42196700
f 4/4/4 12/12/12 9/9/9
f 10/10/10 18/18/18 15/15/15
f 14/14/14 17/17/17 2/2/2
f 12/12/12 4/4/4 16/16/16
f 6/6/6 2/2/2 17/17/17
f 1/1/1 8/8/8 11/11/11
f 11/11/11 13/13/13 1/1/1
f 7/7/7 3/3/3 5/5/5

