mtllib material.mtl
usemtl material_0
v 0.04028900 -0.01000000 -0.00007900
v 0.04028900 -0.01000000 -0.00007900
v 0.04028900 -0.01000000 -0.00007900
v 0.04028900 -0.01000000 -0.00007900
v 0.04102400 0.01000000 -0.00136600
v 0.04102400 0.01000000 -0.00136600
v 0.04102400 0.01000000 -0.00136600
v 0.04102400 0.01000000 -0.00136600
v 0.04102400 0.01000000 -0.00136600
v 0.08014900 -0.01000000 -0.00004000
v 0.08014900 -0.01000000 -0.00004000
v 0.08014900 -0.01000000 -0.00004000
v 0.08024100 0.01000000 -0.00003200
v 0.08024100 0.01000000 -0.00003200
v 0.08024100 0.01000000 -0.00003200
v 0.08024100 0.01000000 -0.00003200
v 0.08024100 0.01000000 -0.00003200
v 0.07609300 -0.01000000 -0.02657000
v 0.07609300 -0.01000000 -0.02657000
v 0.07609300 -0.01000000 -0.02657000
v 0.07609300 -0.01000000 -0.02657000
v 0.07609300 -0.01000000 -0.02657000
v 0.07723000 0.01000000 -0.02160200
v 0.07723000 0.01000000 -0.02160200
v 0.07723000 0.01000000 -0.02160200
v 0.03516200 -0.01000000 -0.01994900
v 0.03516200 -0.01000000 -0.01994900
v 0.03516200 -0.01000000 -0.01994900
v 0.03516200 -0.01000000 -0.01994900
v 0.06147900 0.01000000 -0.05305200
v 0.06147900 0.01000000 -0.05305200
v 0.06147900 0.01000000 -0.05305200
v 0.06147900 0.01000000 -0.05305200
v 0.06147900 0.01000000 -0.05305200
v 0.06147900 0.01000000 -0.05305200
v 0.02848700 0.01000300 -0.02904000
v 0.02848700 0.01000300 -0.02904000
v 0.02848700 0.01000300 -0.02904000
v 0.02848700 0.01000300 -0.02904000
v 0.02848700 0.01000300 -0.02904000
v 0.02848700 0.01000300 -0.02904000
v 0.05305200 -0.01000000 -0.06147900
v 0.05305200 -0.01000000 -0.06147900
v 0.05305200 -0.01000000 -0.06147900
v 0.05305200 -0.01000000 -0.06147900
v 0.02112100 -0.01000100 -0.03423500
v 0.02112100 -0.01000100 -0.03423500
v 0.02112100 -0.01000100 -0.03423500
v 0.02112100 -0.01000100 -0.03423500
v 0.02657000 0.01000000 -0.07609300
v 0.02657000 0.01000000 -0.07609300
v 0.02657000 0.01000000 -0.07609300
v 0.02657000 0.01000000 -0.07609300
v 0.02657000 0.01000000 -0.07609300
v 0.02657000 0.01000000 -0.07609300
v 0.00927200 0.01000000 -0.03914300
v 0.00927200 0.01000000 -0.03914300
v 0.00927200 0.01000000 -0.03914300
v 0.00927200 0.01000000 -0.03914300
v 0.00927200 0.01000000 -0.03914300
v 0.01164200 -0.01000000 -0.08003400
v 0.01164200 -0.01000000 -0.08003400
v 0.01164200 -0.01000000 -0.08003400
v 0.01164200 -0.01000000 -0.08003400
v 0.01164200 -0.01000000 -0.08003400
v 0.00390300 -0.01000100 -0.04014400
v 0.00390300 -0.01000100 -0.04014400
v 0.00390300 -0.01000100 -0.04014400
v 0.00390300 -0.01000100 -0.04014400
v 0.00390300 -0.01000100 -0.04014400
v -0.01164200 0.01000000 -0.08003400
v -0.01164200 0.01000000 -0.08003400
v -0.01164200 0.01000000 -0.08003400
v -0.01164200 0.01000000 -0.08003400
v -0.01075700 0.01000000 -0.03896900
v -0.01075700 0.01000000 -0.03896900
v -0.01075700 0.01000000 -0.03896900
v -0.01075700 0.01000000 -0.03896900
v -0.02657000 -0.01000000 -0.07609300
v -0.02657000 -0.01000000 -0.07609300
v -0.02657000 -0.01000000 -0.07609300
v -0.02657000 -0.01000000 -0.07609300
v -0.01948000 -0.01000000 -0.03577500
v -0.01948000 -0.01000000 -0.03577500
v -0.01948000 -0.01000000 -0.03577500
v -0.01948000 -0.01000000 -0.03577500
v -0.01948000 -0.01000000 -0.03577500
v -0.04402000 0.01000000 -0.06724400
v -0.04402000 0.01000000 -0.06724400
v -0.04402000 0.01000000 -0.06724400
v -0.04402000 0.01000000 -0.06724400
v -0.03294300 0.01000000 -0.02411700
v -0.03294300 0.01000000 -0.02411700
v -0.03294300 0.01000000 -0.02411700
v -0.03294300 0.01000000 -0.02411700
v -0.05087300 -0.01000000 -0.06199300
v -0.05087300 -0.01000000 -0.06199300
v -0.05087300 -0.01000000 -0.06199300
v -0.05087300 -0.01000000 -0.06199300
v -0.06998400 0.01000000 -0.04083900
v -0.06998400 0.01000000 -0.04083900
v -0.06998400 0.01000000 -0.04083900
v -0.06998400 0.01000000 -0.04083900
v -0.06998400 0.01000000 -0.04083900
v -0.06967600 -0.01000000 -0.04059900
v -0.06967600 -0.01000000 -0.04059900
v -0.06967600 -0.01000000 -0.04059900
v -0.03276600 -0.01000000 -0.02294300
v -0.03276600 -0.01000000 -0.02294300
v -0.03276600 -0.01000000 -0.02294300
v -0.03276600 -0.01000000 -0.02294300
vn -0.97700000 0.05000000 0.20710000
vn -0.00000000 -1.00000000 -0.00000000
vn -0.00100000 -0.00040000 1.00000000
vn -0.03390000 0.06540000 0.99730000
vn -0.88590000 -0.11550000 0.44920000
vn -0.03390000 0.06540000 0.99730000
vn 0.00010000 1.00000000 -0.00000000
vn -0.97680000 0.05490000 0.20710000
vn -0.00000000 1.00000000 -0.00000000
vn 0.98850000 -0.00450000 -0.15110000
vn -0.00000000 -1.00000000 -0.00000000
vn -0.00100000 -0.00040000 1.00000000
vn 0.99020000 -0.02200000 -0.13820000
vn 0.98850000 -0.00450000 -0.15110000
vn -0.00100000 -0.00040000 1.00000000
vn -0.03390000 0.06540000 0.99730000
vn -0.00000000 1.00000000 -0.00000000
vn 0.89250000 0.06030000 -0.44700000
vn -0.00000000 -1.00000000 -0.00000000
vn 0.98850000 -0.00450000 -0.15110000
vn 0.82870000 -0.11870000 -0.54700000
vn 0.99020000 -0.02200000 -0.13820000
vn 0.89250000 0.06030000 -0.44700000
vn -0.00000000 1.00000000 -0.00000000
vn 0.99020000 -0.02200000 -0.13820000
vn -0.00000000 -1.00000000 -0.00000000
vn -0.97700000 0.05160000 0.20710000
vn -0.71090000 0.08030000 0.69870000
vn -0.88770000 -0.10460000 0.44840000
vn 0.54700000 0.11870000 -0.82870000
vn 0.82870000 -0.11870000 -0.54700000
vn -0.00000000 1.00000000 -0.00000000
vn -0.00000000 1.00000000 -0.00010000
vn 0.89250000 0.06030000 -0.44700000
vn 0.00010000 1.00000000 -0.00000000
vn -0.00010000 1.00000000 -0.00010000
vn -0.88840000 -0.10130000 0.44770000
vn -0.71090000 0.08030000 0.69870000
vn 0.00010000 1.00000000 -0.00000000
vn -0.00000000 1.00000000 -0.00010000
vn -0.50150000 -0.04360000 0.86410000
vn -0.00000000 -1.00000000 -0.00000000
vn 0.40570000 -0.12440000 -0.90550000
vn 0.54700000 0.11870000 -0.82870000
vn 0.82870000 -0.11870000 -0.54700000
vn -0.50240000 -0.04740000 0.86330000
vn -0.00000000 -1.00000000 -0.00000000
vn -0.36210000 0.02080000 0.93190000
vn -0.71090000 0.08030000 0.69870000
vn 0.10190000 0.11860000 -0.98770000
vn 0.40570000 -0.12440000 -0.90550000
vn -0.00000000 1.00000000 -0.00000000
vn 0.54700000 0.11870000 -0.82870000
vn -0.00000000 1.00000000 -0.00010000
vn -0.00010000 1.00000000 -0.00010000
vn -0.50320000 -0.05290000 0.86260000
vn 0.00870000 -0.05230000 0.99860000
vn -0.00010000 1.00000000 -0.00010000
vn -0.00000000 1.00000000 -0.00000000
vn -0.36220000 0.02090000 0.93190000
vn 0.10190000 0.11860000 -0.98770000
vn -0.00000000 -1.00000000 -0.00000000
vn -0.00010000 -1.00000000 -0.00000000
vn 0.40570000 -0.12440000 -0.90550000
vn -0.10190000 -0.11860000 -0.98770000
vn -0.36550000 0.03260000 0.93030000
vn 0.00870000 -0.05230000 0.99860000
vn -0.00000000 -1.00000000 -0.00000000
vn -0.00010000 -1.00000000 -0.00000000
vn 0.14410000 0.05890000 0.98780000
vn -0.00000000 1.00000000 -0.00000000
vn 0.10190000 0.11860000 -0.98770000
vn -0.10190000 -0.11860000 -0.98770000
vn -0.36590000 0.09060000 -0.92620000
vn -0.00000000 1.00000000 -0.00000000
vn 0.00870000 -0.05230000 0.99860000
vn 0.51640000 -0.10680000 0.84970000
vn 0.14440000 0.05810000 0.98780000
vn -0.00000000 -1.00000000 -0.00000000
vn -0.10190000 -0.11860000 -0.98770000
vn -0.36590000 0.09060000 -0.92620000
vn -0.50110000 -0.05510000 -0.86360000
vn -0.00010000 -1.00000000 -0.00000000
vn 0.51610000 -0.11270000 0.84910000
vn 0.66620000 0.02800000 0.74530000
vn -0.00000000 -1.00000000 -0.00000000
vn 0.14010000 0.07660000 0.98720000
vn -0.71170000 0.06010000 -0.69990000
vn -0.50110000 -0.05510000 -0.86360000
vn -0.36590000 0.09060000 -0.92620000
vn -0.00000000 1.00000000 -0.00000000
vn 0.51620000 -0.10920000 0.84950000
vn -0.00000000 1.00000000 -0.00000000
vn 0.66840000 0.02320000 0.74340000
vn -0.48830000 0.04770000 0.87140000
vn -0.75100000 -0.01950000 -0.66000000
vn -0.00000000 -1.00000000 -0.00000000
vn -0.71170000 0.06010000 -0.69990000
vn -0.50110000 -0.05510000 -0.86360000
vn -0.50790000 0.00330000 0.86140000
vn -0.48820000 0.04960000 0.87130000
vn -0.71170000 0.06010000 -0.69990000
vn -0.00000000 1.00000000 -0.00000000
vn -0.75100000 -0.01950000 -0.66000000
vn -0.00000000 -1.00000000 -0.00000000
vn -0.75100000 -0.01950000 -0.66000000
vn -0.50790000 0.00420000 0.86140000
vn -0.50790000 0.00370000 0.86140000
vn -0.00000000 -1.00000000 -0.00000000
vn -0.48830000 0.04740000 0.87140000
vn 0.66190000 0.04830000 0.74810000
vt 0.27823400 0.63269400
vt 0.59684700 0.02996800
vt 0.27823400 0.63269400
vt 0.27823400 0.63269400
vt 0.31904000 0.61243100
vt 0.31904000 0.61243100
vt 0.31904000 0.61243100
vt 0.31904000 0.61243100
vt 0.31904000 0.61243100
vt 0.34578200 0.69363500
vt 0.68012200 0.03955700
vt 0.34578200 0.69363500
vt 0.35073300 0.65560000
vt 0.35073300 0.65560000
vt 0.35073300 0.65560000
vt 0.35073300 0.65560000
vt 0.35073300 0.65560000
vt 0.41614800 0.67067000
vt 0.66521300 0.09399300
vt 0.41614800 0.67067000
vt 0.41614800 0.67067000
vt 0.41614800 0.67067000
vt 0.37690000 0.63692900
vt 0.37690000 0.63692900
vt 0.37690000 0.63692900
vt 0.58131600 0.07023000
vt 0.27109100 0.57625000
vt 0.27109100 0.57625000
vt 0.27109100 0.57625000
vt 0.41394100 0.58064900
vt 0.41394100 0.58064900
vt 0.41394100 0.58064900
vt 0.41394100 0.58064900
vt 0.41394100 0.58064900
vt 0.41394100 0.58064900
vt 0.32816300 0.54988500
vt 0.32816300 0.54988500
vt 0.32816300 0.54988500
vt 0.32816300 0.54988500
vt 0.32816300 0.54988500
vt 0.32816300 0.54988500
vt 0.60861000 0.16132500
vt 0.46729800 0.57119200
vt 0.46729800 0.57119200
vt 0.46729800 0.57119200
vt 0.27542900 0.52385700
vt 0.54852000 0.09666500
vt 0.27542900 0.52385700
vt 0.27542900 0.52385700
vt 0.42778800 0.49876500
vt 0.42778800 0.49876500
vt 0.42778800 0.49876500
vt 0.42778800 0.49876500
vt 0.42778800 0.49876500
vt 0.42778800 0.49876500
vt 0.33083600 0.49005500
vt 0.33083600 0.49005500
vt 0.33083600 0.49005500
vt 0.33083600 0.49005500
vt 0.33083600 0.49005500
vt 0.47129600 0.46263900
vt 0.51760600 0.19003800
vt 0.51760600 0.19003800
vt 0.47129600 0.46263900
vt 0.47129600 0.46263900
vt 0.27557200 0.47729800
vt 0.27557200 0.47729800
vt 0.51111800 0.10483200
vt 0.51111800 0.10483200
vt 0.27557200 0.47729800
vt 0.41652100 0.42413000
vt 0.41652100 0.42413000
vt 0.41652100 0.42413000
vt 0.41652100 0.42413000
vt 0.32697700 0.43573600
vt 0.32697700 0.43573600
vt 0.32697700 0.43573600
vt 0.32697700 0.43573600
vt 0.43873900 0.17253400
vt 0.44442600 0.37615400
vt 0.44442600 0.37615400
vt 0.44442600 0.37615400
vt 0.46333200 0.09003100
vt 0.27109100 0.41406900
vt 0.27109100 0.41406900
vt 0.46333200 0.09003100
vt 0.27109100 0.41406900
vt 0.38583200 0.36844400
vt 0.38583200 0.36844400
vt 0.38583200 0.36844400
vt 0.38583200 0.36844400
vt 0.31775100 0.38031300
vt 0.31775100 0.38031300
vt 0.31775100 0.38031300
vt 0.31775100 0.38031300
vt 0.39952000 0.32175400
vt 0.39139300 0.13718200
vt 0.39952000 0.32175400
vt 0.39952000 0.32175400
vt 0.34370400 0.33873700
vt 0.34370400 0.33873700
vt 0.34370400 0.33873700
vt 0.34370400 0.33873700
vt 0.34370400 0.33873700
vt 0.35730500 0.08792900
vt 0.33621900 0.30636500
vt 0.33621900 0.30636500
vt 0.27761100 0.36438500
vt 0.43869200 0.06000300
vt 0.27761100 0.36438500
vt 0.27761100 0.36438500
f 14/14/14 10/10/10 20/20/20
f 27/27/27 1/1/1 8/8/8
f 31/31/31 21/21/21 45/45/45
f 49/49/49 28/28/28 38/38/38
f 58/58/58 36/36/36 55/55/55
f 66/66/66 48/48/48 60/60/60
f 51/51/51 43/43/43 64/64/64
f 59/59/59 52/52/52 71/71/71
f 87/87/87 70/70/70 78/78/78
f 73/73/73 65/65/65 80/80/80
f 89/89/89 82/82/82 99/99/99
f 93/93/93 91/91/91 103/103/103
f 111/111/111 85/85/85 94/94/94
f 104/104/104 96/96/96 106/106/106
f 100/100/100 107/107/107 108/108/108
f 101/101/101 110/110/110 95/95/95
f 15/15/15 3/3/3 12/12/12
f 16/16/16 6/6/6 4/4/4
f 13/13/13 22/22/22 25/25/25
f 9/9/9 17/17/17 24/24/24
f 23/23/23 18/18/18 34/34/34
f 9/9/9 24/24/24 32/32/32
f 29/29/29 5/5/5 37/37/37
f 7/7/7 35/35/35 39/39/39
f 30/30/30 44/44/44 53/53/53
f 40/40/40 33/33/33 54/54/54
f 46/46/46 41/41/41 56/56/56
f 50/50/50 61/61/61 72/72/72
f 67/67/67 57/57/57 76/76/76
f 59/59/59 71/71/71 75/75/75
f 74/74/74 81/81/81 90/90/90
f 75/75/75 71/71/71 91/91/91
f 84/84/84 77/77/77 92/92/92
f 75/75/75 91/91/91 93/93/93
f 88/88/88 98/98/98 102/102/102
f 19/19/19 2/2/2 26/26/26
f 42/42/42 26/26/26 47/47/47
f 42/42/42 47/47/47 68/68/68
f 63/63/63 69/69/69 83/83/83
f 97/97/97 86/86/86 109/109/109
f 11/11/11 2/2/2 19/19/19
f 19/19/19 26/26/26 42/42/42
f 42/42/42 68/68/68 62/62/62
f 62/62/62 86/86/86 79/79/79
f 79/79/79 86/86/86 97/97/97
f 97/97/97 109/109/109 105/105/105

