# Blender 4.3.1
# www.blender.org
mtllib shuriken.mtl
o Star2
v 0.000187 0.009983 -0.021196
v 0.034608 0.009923 0.034836
v -0.000337 0.009863 0.021264
v 0.005216 0.009955 -0.006733
v -0.021144 0.009871 0.000279
v 0.034984 0.010003 -0.034984
v -0.034649 0.009923 -0.034794
v -0.000329 -0.009983 0.021245
v 0.021095 -0.009865 -0.000136
v 0.035008 -0.009845 -0.035010
v -0.034999 0.009843 0.035003
v -0.034966 -0.010004 0.034973
v 0.021076 0.009983 -0.000131
v -0.003548 -0.009947 0.005571
v 0.000194 -0.009864 -0.021214
v 0.029810 -0.009849 -0.021934
v 0.034628 -0.009923 0.034815
v -0.034628 -0.009923 -0.034815
v -0.021125 -0.009981 0.000273
vn 0.0002 -0.7983 -0.6022
vn -0.5893 -0.5481 -0.5936
vn -0.5907 0.5481 -0.5922
vn -0.5925 0.5472 0.5912
vn 0.0033 -0.8005 0.5993
vn 0.0004 0.7980 0.6026
vn -0.6025 0.7981 -0.0019
vn -0.0020 1.0000 0.0020
vn -0.0029 0.8008 -0.5989
vn 0.5989 0.8008 0.0046
vn 0.5904 0.5481 0.5925
vn 0.5921 0.5485 -0.5903
vn 0.6581 -0.7058 0.2621
vn 0.6022 -0.7984 0.0015
vn 0.5922 -0.5464 -0.5923
vn -0.5994 -0.8004 -0.0051
vn -0.5908 -0.5501 0.5903
vn 0.5918 -0.5481 0.5911
vn 0.0021 -1.0000 -0.0022
vt 0.490198 0.416999
vt 0.490477 0.475147
vt 0.398690 0.475172
vt 0.471175 0.702479
vt 0.379468 0.655588
vt 0.471252 0.655595
vt 0.589153 0.605101
vt 0.623721 0.557800
vt 0.661343 0.578464
vt 0.647316 0.598759
vt 0.663648 0.534662
vt 0.687409 0.575527
vt 0.721968 0.528400
vt 0.694387 0.633610
vt 0.616763 0.499946
vt 0.398412 0.525974
vt 0.490072 0.569608
vt 0.398333 0.584057
vt 0.490198 0.525991
vt 0.398333 0.369938
vt 0.490120 0.369911
vt 0.398413 0.417008
vt 0.673028 0.298917
vt 0.764814 0.298874
vt 0.765093 0.346199
vt 0.673307 0.346218
vt 0.765171 0.404038
vt 0.673384 0.404073
vt 0.379389 0.702452
vt 0.379745 0.597249
vt 0.471532 0.597274
vt 0.398690 0.478847
vt 0.490476 0.478890
vt 0.490120 0.584082
vt 0.462804 0.135277
vt 0.421779 0.144918
vt 0.399639 0.090855
vt 0.455070 0.177171
vt 0.410733 0.182977
vt 0.454732 0.111029
vt 0.400949 0.199598
vt 0.508600 0.088694
vt 0.487864 0.143128
vt 0.509952 0.197408
s 1
usemtl PlasticRed2.002
f 15/1/1 18/2/2 7/3/3
f 11/4/4 8/5/5 3/6/6
f 7/7/3 5/8/7 4/9/8
f 4/9/8 1/10/9 7/7/3
f 3/11/6 4/9/8 5/8/7
f 13/12/10 4/9/8 3/11/6
f 3/11/6 2/13/11 13/12/10
f 6/14/12 4/9/8 13/12/10
f 1/10/9 4/9/8 6/14/12
f 3/11/6 5/8/7 11/15/4
f 13/16/10 16/17/13 6/18/12
f 13/16/10 9/19/14 16/17/13
f 6/20/12 10/21/15 15/1/1
f 15/1/1 1/22/9 6/20/12
f 7/3/3 1/22/9 15/1/1
f 7/23/3 18/24/2 19/25/16
f 19/25/16 5/26/7 7/23/3
f 5/26/7 12/27/17 11/28/4
f 5/26/7 19/25/16 12/27/17
f 11/4/4 12/29/17 8/5/5
f 3/6/6 8/5/5 17/30/18
f 17/30/18 2/31/11 3/6/6
f 13/16/10 2/32/11 17/33/18
f 16/17/13 10/34/15 6/18/12
f 13/16/10 17/33/18 9/19/14
f 14/35/19 9/36/14 17/37/18
f 9/36/14 14/35/19 15/38/1
f 15/38/1 16/39/13 9/36/14
f 8/40/5 14/35/19 17/37/18
f 15/38/1 10/41/15 16/39/13
f 12/42/17 14/35/19 8/40/5
f 19/43/16 18/44/2 15/38/1
f 15/38/1 14/35/19 19/43/16
f 14/35/19 12/42/17 19/43/16
