mtllib material.mtl
usemtl material_0
v 0.03500000 -0.01000000 0.00000000
v 0.03500000 -0.01000000 0.00000000
v 0.03500000 -0.01000000 0.00000000
v 0.03500000 0.01000000 0.00000000
v 0.03500000 0.01000000 0.00000000
v 0.03500000 0.01000000 0.00000000
v 0.01750000 -0.01000000 -0.03025000
v 0.01750000 -0.01000000 -0.03025000
v 0.01750000 -0.01000000 -0.03025000
v 0.01750000 0.01000000 -0.03025000
v 0.01750000 0.01000000 -0.03025000
v 0.01750000 0.01000000 -0.03025000
v -0.01750000 -0.01000000 -0.03025000
v -0.01750000 -0.01000000 -0.03025000
v -0.01750000 -0.01000000 -0.03025000
v -0.01750000 0.01000000 -0.03025000
v -0.01750000 0.01000000 -0.03025000
v -0.01750000 0.01000000 -0.03025000
v -0.03500000 -0.01000000 0.00000000
v -0.03500000 -0.01000000 0.00000000
v -0.03500000 -0.01000000 0.00000000
v -0.03500000 0.01000000 0.00000000
v -0.03500000 0.01000000 0.00000000
v -0.03500000 0.01000000 0.00000000
v -0.01750000 -0.01000000 0.03025000
v -0.01750000 -0.01000000 0.03025000
v -0.01750000 -0.01000000 0.03025000
v -0.01750000 0.01000000 0.03025000
v -0.01750000 0.01000000 0.03025000
v -0.01750000 0.01000000 0.03025000
v 0.01750000 -0.01000000 0.03025000
v 0.01750000 -0.01000000 0.03025000
v 0.01750000 -0.01000000 0.03025000
v 0.01750000 0.01000000 0.03025000
v 0.01750000 0.01000000 0.03025000
v 0.01750000 0.01000000 0.03025000
vn 0.86560000 -0.00000000 -0.50080000
vn 0.86560000 -0.00000000 0.50080000
vn -0.00000000 -1.00000000 -0.00000000
vn 0.86560000 -0.00000000 -0.50080000
vn 0.86560000 -0.00000000 0.50080000
vn -0.00000000 1.00000000 -0.00000000
vn -0.00000000 -0.00000000 -1.00000000
vn 0.86560000 -0.00000000 -0.50080000
vn -0.00000000 -1.00000000 -0.00000000
vn -0.00000000 1.00000000 -0.00000000
vn 0.86560000 -0.00000000 -0.50080000
vn -0.00000000 -0.00000000 -1.00000000
vn -0.00000000 -0.00000000 -1.00000000
vn -0.00000000 -1.00000000 -0.00000000
vn -0.86560000 -0.00000000 -0.50080000
vn -0.00000000 -0.00000000 -1.00000000
vn -0.00000000 1.00000000 -0.00000000
vn -0.86560000 -0.00000000 -0.50080000
vn -0.86560000 -0.00000000 0.50080000
vn -0.86560000 -0.00000000 -0.50080000
vn -0.00000000 -1.00000000 -0.00000000
vn -0.86560000 -0.00000000 0.50080000
vn -0.86560000 -0.00000000 -0.50080000
vn -0.00000000 1.00000000 -0.00000000
vn -0.00000000 -1.00000000 -0.00000000
vn -0.00000000 -0.00000000 1.00000000
vn -0.86560000 -0.00000000 0.50080000
vn -0.00000000 1.00000000 -0.00000000
vn -0.00000000 -0.00000000 1.00000000
vn -0.86560000 -0.00000000 0.50080000
vn -0.00000000 -1.00000000 -0.00000000
vn 0.86560000 -0.00000000 0.50080000
vn -0.00000000 -0.00000000 1.00000000
vn 0.86560000 -0.00000000 0.50080000
vn -0.00000000 1.00000000 -0.00000000
vn -0.00000000 -0.00000000 1.00000000
vt 0.63276600 0.33027400
vt 0.63276600 0.33027400
vt 0.60948400 0.16546500
vt 0.60932800 0.34775600
vt 0.60932800 0.34775600
vt 0.60932800 0.34775600
vt 0.63276600 0.42674100
vt 0.63276600 0.42674100
vt 0.60948400 0.09093900
vt 0.60692800 0.41517900
vt 0.60692800 0.41517900
vt 0.60692800 0.41517900
vt 0.55415000 0.48147200
vt 0.54494300 0.05367700
vt 0.55415000 0.48147200
vt 0.55072900 0.45243300
vt 0.55072900 0.45243300
vt 0.55072900 0.45243300
vt 0.47060700 0.43323900
vt 0.47060700 0.43323900
vt 0.48040200 0.09093900
vt 0.49353900 0.41664400
vt 0.49353900 0.41664400
vt 0.49353900 0.41664400
vt 0.48040200 0.16546400
vt 0.46251600 0.33779000
vt 0.46251600 0.33779000
vt 0.48937500 0.34934600
vt 0.48937500 0.34934600
vt 0.48937500 0.34934600
vt 0.54494200 0.20272700
vt 0.54605900 0.28955600
vt 0.54605900 0.28955600
vt 0.54896500 0.31771300
vt 0.54896500 0.31771300
vt 0.54896500 0.31771300
f 10/10/10 24/24/24 35/35/35
f 8/8/8 4/4/4 1/1/1
f 13/13/13 12/12/12 7/7/7
f 20/20/20 18/18/18 15/15/15
f 27/27/27 22/22/22 19/19/19
f 33/33/33 29/29/29 26/26/26
f 2/2/2 34/34/34 32/32/32
f 35/35/35 6/6/6 10/10/10
f 10/10/10 17/17/17 24/24/24
f 24/24/24 28/28/28 35/35/35
f 8/8/8 11/11/11 4/4/4
f 13/13/13 16/16/16 12/12/12
f 20/20/20 23/23/23 18/18/18
f 27/27/27 30/30/30 22/22/22
f 33/33/33 36/36/36 29/29/29
f 2/2/2 5/5/5 34/34/34
f 31/31/31 25/25/25 14/14/14
f 31/31/31 14/14/14 9/9/9
f 3/3/3 31/31/31 9/9/9
f 25/25/25 21/21/21 14/14/14

